<svg width="65" height="55" viewBox="0 0 65 55" fill="none" xmlns="http://www.w3.org/2000/svg">
<path d="M47.1912 29.8765C47.0506 29.8765 46.9117 29.8827 46.7732 29.8916C46.2898 26.8097 43.6166 24.4445 40.4011 24.4445H10.5247C7.30922 24.4445 4.636 26.8098 4.15258 29.8916C4.01424 29.8827 3.87515 29.8765 3.73455 29.8765H0V50.9259H2.03698V55H8.14805V50.9259H10.185V49.5679H40.7405V50.9259H42.6418V55H48.7529V50.9259H50.9257V29.8765H47.1912ZM6.11107 52.9629H4.07409V50.9259H6.11107V52.9629ZM8.14818 48.8889H2.03698V31.9136H3.73455C6.16827 31.9136 8.14818 33.8937 8.14818 36.3273V48.8889ZM40.7406 47.5308H10.1852V44.1358H40.7406V47.5308ZM13.3232 39.0432L17.315 35.0514L21.3068 39.0432L18.2511 42.0988H16.3787L13.3232 39.0432ZM29.6194 39.0432L33.6112 35.0514L37.603 39.0432L34.5473 42.0988H32.675L29.6194 39.0432ZM40.7406 36.3271V42.0987H37.4279L40.4835 39.0431L33.6111 32.1706L26.7387 39.0431L29.7942 42.0987H21.1318L24.1874 39.0431L17.3148 32.1706L10.4424 39.0431L13.498 42.0987H10.1852V36.3271C10.1852 33.6229 8.51165 31.3033 6.14635 30.3461C6.41773 28.1706 8.27694 26.4814 10.5246 26.4814H40.4011C42.6487 26.4814 44.5081 28.1706 44.7793 30.3461C42.4141 31.3035 40.7406 33.6229 40.7406 36.3271ZM46.716 52.9629H44.679V50.9259H46.716V52.9629ZM42.7777 48.8888V36.3271C42.7777 33.8935 44.7576 31.9135 47.1914 31.9135H48.8889V48.8888H42.7777Z" fill="#B6AC9E"/>
<path d="M46.1727 12.2223V25.1235H54.3209V49.0312C52.7554 49.4758 51.6049 50.9173 51.6049 52.6234V54.9999H59.074V52.6234C59.074 50.9172 57.9234 49.4758 56.3579 49.0312V25.1235H59.7529V30.8951H61.7899V25.1235H64.5061V12.2223H46.1727ZM57.037 52.6235V52.963H53.642V52.6235C53.642 51.6874 54.4034 50.9259 55.3395 50.9259C56.2756 50.9259 57.037 51.6874 57.037 52.6235ZM62.4691 23.0864H48.2099V14.2592H62.4691V23.0864Z" fill="#B6AC9E"/>
<path d="M0 0V21.0494H40.0617V0H0ZM8.14818 19.0124H2.03698V17.2469H8.14805V19.0124H8.14818ZM8.14818 15.21H2.03698V13.4445H8.14805V15.21H8.14818ZM8.14818 11.4074H2.03698V9.6419H8.14805V11.4074H8.14818ZM8.14818 7.60491H2.03698V5.83956H8.14805V7.60491H8.14818ZM8.14818 3.80246H2.03698V2.03711H8.14805V3.80246H8.14818ZM19.0123 19.0124H10.1852V11.5433H19.0123V19.0124ZM19.0123 9.50621H10.1852V2.03711H19.0123V9.50621ZM29.8765 19.0124H21.0494V11.5433H29.8765V19.0124ZM29.8765 9.50621H21.0494V2.03711H29.8765V9.50621ZM38.0247 19.0124H31.9136V17.2469H38.0247V19.0124ZM38.0247 15.21H31.9136V13.4445H38.0247V15.21ZM38.0247 11.4074H31.9136V9.6419H38.0247V11.4074ZM38.0247 7.60491H31.9136V5.83956H38.0247V7.60491ZM38.0247 3.80246H31.9136V2.03711H38.0247V3.80246Z" fill="#B6AC9E"/>
<path d="M60.0925 5.43212H58.0555V7.4691H60.0925V5.43212Z" fill="#B6AC9E"/>
<path d="M56.0184 5.43212H53.9814V7.4691H56.0184V5.43212Z" fill="#B6AC9E"/>
<path d="M51.9443 5.43212H49.9073V7.4691H51.9443V5.43212Z" fill="#B6AC9E"/>
</svg>
