<svg width="132" height="50" viewBox="0 0 132 50" fill="none" xmlns="http://www.w3.org/2000/svg">
<path d="M53.1148 0H54.918V50H53.1148V0Z" fill="white"/>
<path d="M69.7141 1.58557C70.3856 1.58557 71.085 1.61355 71.8125 1.66951C72.5539 1.72546 73.3023 1.83738 74.0577 2.00524C74.0577 2.00524 74.0787 2.15213 74.1207 2.4459C74.1766 2.72568 74.2326 3.06142 74.2885 3.45311C74.3445 3.83082 74.3934 4.18055 74.4354 4.50229C74.4914 4.81005 74.5193 4.99191 74.5193 5.04787C74.5333 5.10382 74.4914 5.15978 74.3934 5.21574C74.2955 5.27169 74.1906 5.29967 74.0787 5.29967C73.9808 5.29967 73.8968 5.27869 73.8269 5.23672C73.7989 5.08284 73.729 4.84503 73.6171 4.52328C73.5191 4.20153 73.3303 3.86579 73.0505 3.51607C72.7847 3.16634 72.393 2.87257 71.8754 2.63475C71.3578 2.38295 70.6723 2.25705 69.819 2.25705C69.0636 2.25705 68.3781 2.43191 67.7626 2.78164C67.1471 3.11738 66.6155 3.57902 66.1679 4.16656C65.7342 4.74011 65.3985 5.38361 65.1607 6.09705C64.9368 6.7965 64.8249 7.50295 64.8249 8.21639C64.8249 9.01377 64.9298 9.79716 65.1397 10.5666C65.3635 11.336 65.6922 12.0354 66.1259 12.6649C66.5736 13.2804 67.1261 13.777 67.7836 14.1548C68.4551 14.5185 69.2385 14.7003 70.1338 14.7003C70.7633 14.7003 71.2949 14.6024 71.7285 14.4066C72.1762 14.2107 72.5469 13.9799 72.8407 13.7141C73.2463 13.3504 73.5401 12.9447 73.722 12.497C73.9038 12.0494 74.0297 11.6577 74.0997 11.322C74.3375 11.294 74.5543 11.3499 74.7502 11.4898C74.7502 11.5878 74.7222 11.7836 74.6662 12.0774C74.6243 12.3711 74.5683 12.6929 74.4984 13.0426C74.4284 13.3784 74.3515 13.6791 74.2675 13.9449C74.1836 14.2107 74.1067 14.3786 74.0367 14.4485C73.4772 14.7563 72.8407 14.9871 72.1272 15.141C71.4138 15.2949 70.5814 15.3718 69.6302 15.3718C68.623 15.3718 67.6997 15.1969 66.8603 14.8472C66.021 14.4835 65.2936 13.9939 64.678 13.3784C64.0765 12.7489 63.6079 12.0354 63.2721 11.238C62.9504 10.4267 62.7895 9.56634 62.7895 8.65705C62.7895 7.6918 62.9574 6.78951 63.2931 5.95016C63.6428 5.09683 64.1255 4.34142 64.741 3.68393C65.3565 3.02645 66.0839 2.51585 66.9233 2.15213C67.7766 1.77443 68.7069 1.58557 69.7141 1.58557Z" fill="white"/>
<path d="M78.9721 1.77443C79.3778 1.77443 79.7695 1.76743 80.1472 1.75344C80.5389 1.72546 80.9446 1.70448 81.3643 1.69049C81.4202 1.74645 81.4412 1.84437 81.4272 1.98426C81.4272 2.12415 81.4062 2.22208 81.3643 2.27803C81.2803 2.27803 81.1264 2.29202 80.9026 2.32C80.6788 2.33399 80.469 2.36197 80.2731 2.40393C80.0773 2.4459 79.9654 2.50885 79.9374 2.59279C79.8954 2.73268 79.8674 2.91453 79.8534 3.13836C79.8534 3.36219 79.8534 3.60699 79.8534 3.87279C79.8534 3.91475 79.8534 3.95672 79.8534 3.99869C79.8534 4.04065 79.8534 4.08262 79.8534 4.12459V12.8748C79.8534 12.9167 79.8534 12.9587 79.8534 13.0007C79.8534 13.0426 79.8534 13.0846 79.8534 13.1266C79.8534 13.3923 79.8534 13.6372 79.8534 13.861C79.8674 14.0708 79.8954 14.2457 79.9374 14.3856C79.9654 14.4555 80.0773 14.5185 80.2731 14.5744C80.469 14.6304 80.6788 14.6723 80.9026 14.7003C81.1264 14.7143 81.2803 14.7213 81.3643 14.7213C81.4062 14.7773 81.4272 14.8752 81.4272 15.0151C81.4412 15.155 81.4202 15.2529 81.3643 15.3089C80.9446 15.2809 80.5389 15.2599 80.1472 15.2459C79.7695 15.2179 79.3778 15.2039 78.9721 15.2039C78.5804 15.2039 78.1817 15.2179 77.7761 15.2459C77.3704 15.2599 76.9577 15.2809 76.538 15.3089C76.4821 15.2529 76.4541 15.155 76.4541 15.0151C76.4681 14.8752 76.4961 14.7773 76.538 14.7213C76.622 14.7213 76.7758 14.7143 76.9997 14.7003C77.2235 14.6723 77.4333 14.6304 77.6292 14.5744C77.839 14.5185 77.9509 14.4555 77.9649 14.3856C78.0209 14.2177 78.0489 14.0009 78.0489 13.7351C78.0628 13.4693 78.0698 13.1825 78.0698 12.8748V4.12459C78.0698 3.81683 78.0628 3.53005 78.0489 3.26426C78.0489 2.98448 78.0209 2.76066 77.9649 2.59279C77.9509 2.50885 77.839 2.4459 77.6292 2.40393C77.4333 2.36197 77.2235 2.33399 76.9997 2.32C76.7758 2.29202 76.622 2.27803 76.538 2.27803C76.4961 2.22208 76.4681 2.12415 76.4541 1.98426C76.4541 1.84437 76.4821 1.74645 76.538 1.69049C76.9577 1.70448 77.3704 1.72546 77.7761 1.75344C78.1817 1.76743 78.5804 1.77443 78.9721 1.77443Z" fill="white"/>
<path d="M88.5072 1.73246C88.9688 1.73246 89.4445 1.8094 89.9341 1.96328C90.4237 2.11716 90.8714 2.34098 91.277 2.63475C91.6967 2.92852 92.0325 3.29923 92.2843 3.74688C92.5361 4.18055 92.662 4.69115 92.662 5.27869C92.662 5.76831 92.5221 6.24393 92.2423 6.70557C91.9765 7.16721 91.6268 7.5729 91.1931 7.92262C90.7734 8.27235 90.3328 8.52415 89.8711 8.67803C90.2349 9.27956 90.5846 9.83213 90.9203 10.3357C91.2561 10.8393 91.6058 11.343 91.9695 11.8466C92.3332 12.3362 92.7389 12.8817 93.1866 13.4833C93.4803 13.875 93.7951 14.1687 94.1308 14.3646C94.4805 14.5604 94.9352 14.6793 95.4948 14.7213C95.5507 14.7773 95.5647 14.8822 95.5367 15.0361C95.5087 15.1899 95.4878 15.2809 95.4738 15.3089C94.7883 15.3089 94.2148 15.2879 93.7531 15.2459C93.3055 15.1899 92.9767 15.127 92.7669 15.057C92.627 15.0011 92.4311 14.9172 92.1793 14.8052C91.9275 14.6793 91.6827 14.4625 91.4449 14.1548C91.361 14.0428 91.2071 13.826 90.9833 13.5043C90.7595 13.1825 90.4937 12.7908 90.1859 12.3292C89.8781 11.8675 89.5494 11.3779 89.1997 10.8603C88.8499 10.3287 88.5142 9.81115 88.1925 9.30754C88.0805 9.13967 87.8707 9.05574 87.563 9.05574H86.4928V12.8748C86.4928 12.9167 86.4928 12.9587 86.4928 13.0007C86.4928 13.0426 86.4928 13.0846 86.4928 13.1266C86.4928 13.3923 86.4928 13.6372 86.4928 13.861C86.5068 14.0708 86.5348 14.2457 86.5767 14.3856C86.6047 14.4555 86.7166 14.5185 86.9125 14.5744C87.1083 14.6304 87.3181 14.6723 87.542 14.7003C87.7658 14.7143 87.9197 14.7213 88.0036 14.7213C88.0456 14.7773 88.0666 14.8752 88.0666 15.0151C88.0805 15.155 88.0596 15.2529 88.0036 15.3089C87.5839 15.2809 87.1783 15.2599 86.7866 15.2459C86.4089 15.2179 86.0172 15.2039 85.6115 15.2039C85.2198 15.2039 84.8211 15.2179 84.4154 15.2459C84.0097 15.2599 83.597 15.2809 83.1774 15.3089C83.1214 15.2529 83.0934 15.155 83.0934 15.0151C83.1074 14.8752 83.1354 14.7773 83.1774 14.7213C83.2613 14.7213 83.4152 14.7143 83.639 14.7003C83.8628 14.6723 84.0727 14.6304 84.2685 14.5744C84.4784 14.5185 84.5903 14.4555 84.6043 14.3856C84.6602 14.2177 84.6882 14.0009 84.6882 13.7351C84.7022 13.4693 84.7092 13.1825 84.7092 12.8748L84.6882 4.12459C84.6882 3.81683 84.6812 3.53005 84.6672 3.26426C84.6672 2.98448 84.6392 2.76066 84.5833 2.59279C84.5693 2.50885 84.4574 2.4459 84.2475 2.40393C84.0517 2.36197 83.8419 2.33399 83.618 2.32C83.4082 2.29202 83.2613 2.27803 83.1774 2.27803C83.1354 2.22208 83.1074 2.12415 83.0934 1.98426C83.0934 1.84437 83.1214 1.74645 83.1774 1.69049C83.597 1.70448 84.0027 1.72546 84.3944 1.75344C84.8001 1.76743 85.1988 1.77443 85.5905 1.77443C85.9962 1.77443 86.4298 1.76743 86.8915 1.75344C87.3671 1.73945 87.9057 1.73246 88.5072 1.73246ZM90.7525 5.46754C90.7525 4.57224 90.5076 3.83781 90.018 3.26426C89.5424 2.69071 88.738 2.40393 87.6049 2.40393C87.479 2.40393 87.2832 2.41093 87.0174 2.42492C86.7656 2.43891 86.6187 2.49486 86.5767 2.59279C86.5208 2.71869 86.4858 2.93552 86.4718 3.24328C86.4718 3.53705 86.4718 3.83781 86.4718 4.14557L86.4928 8.42623H87.5839C88.1155 8.42623 88.6191 8.30732 89.0948 8.06951C89.5844 7.8177 89.9831 7.47497 90.2908 7.04131C90.5986 6.59366 90.7525 6.06907 90.7525 5.46754Z" fill="white"/>
<path d="M102.583 1.58557C103.254 1.58557 103.954 1.61355 104.681 1.66951C105.423 1.72546 106.171 1.83738 106.927 2.00524C106.927 2.00524 106.948 2.15213 106.99 2.4459C107.045 2.72568 107.101 3.06142 107.157 3.45311C107.213 3.83082 107.262 4.18055 107.304 4.50229C107.36 4.81005 107.388 4.99191 107.388 5.04787C107.402 5.10382 107.36 5.15978 107.262 5.21574C107.164 5.27169 107.059 5.29967 106.948 5.29967C106.85 5.29967 106.766 5.27869 106.696 5.23672C106.668 5.08284 106.598 4.84503 106.486 4.52328C106.388 4.20153 106.199 3.86579 105.919 3.51607C105.654 3.16634 105.262 2.87257 104.744 2.63475C104.227 2.38295 103.541 2.25705 102.688 2.25705C101.932 2.25705 101.247 2.43191 100.631 2.78164C100.016 3.11738 99.4844 3.57902 99.0367 4.16656C98.6031 4.74011 98.2673 5.38361 98.0295 6.09705C97.8057 6.7965 97.6938 7.50295 97.6938 8.21639C97.6938 9.01377 97.7987 9.79716 98.0085 10.5666C98.2323 11.336 98.5611 12.0354 98.9948 12.6649C99.4424 13.2804 99.995 13.777 100.652 14.1548C101.324 14.5185 102.107 14.7003 103.003 14.7003C103.632 14.7003 104.164 14.6024 104.597 14.4066C105.045 14.2107 105.416 13.9799 105.71 13.7141C106.115 13.3504 106.409 12.9447 106.591 12.497C106.773 12.0494 106.899 11.6577 106.969 11.322C107.206 11.294 107.423 11.3499 107.619 11.4898C107.619 11.5878 107.591 11.7836 107.535 12.0774C107.493 12.3711 107.437 12.6929 107.367 13.0426C107.297 13.3784 107.22 13.6791 107.136 13.9449C107.052 14.2107 106.976 14.3786 106.906 14.4485C106.346 14.7563 105.71 14.9871 104.996 15.141C104.283 15.2949 103.45 15.3718 102.499 15.3718C101.492 15.3718 100.569 15.1969 99.7292 14.8472C98.8898 14.4835 98.1624 13.9939 97.5469 13.3784C96.9454 12.7489 96.4767 12.0354 96.141 11.238C95.8192 10.4267 95.6584 9.56634 95.6584 8.65705C95.6584 7.6918 95.8262 6.78951 96.162 5.95016C96.5117 5.09683 96.9943 4.34142 97.6098 3.68393C98.2253 3.02645 98.9528 2.51585 99.7921 2.15213C100.645 1.77443 101.576 1.58557 102.583 1.58557Z" fill="white"/>
<path d="M112.722 12.8748C112.722 12.9027 112.722 12.9447 112.722 13.0007C112.722 13.1266 112.722 13.2944 112.722 13.5043C112.722 13.7001 112.729 13.882 112.743 14.0498C112.757 14.2177 112.785 14.3156 112.827 14.3436C112.967 14.4415 113.135 14.5045 113.331 14.5325C113.541 14.5464 113.862 14.5534 114.296 14.5534H115.45C115.842 14.5534 116.269 14.5115 116.73 14.4275C117.206 14.3296 117.583 14.1827 117.863 13.9869C118.115 13.805 118.346 13.5532 118.556 13.2315C118.78 12.9097 118.975 12.4761 119.143 11.9305C119.171 11.8466 119.269 11.8046 119.437 11.8046C119.689 11.8046 119.857 11.8466 119.941 11.9305C119.745 12.4901 119.528 13.0846 119.29 13.7141C119.066 14.3436 118.919 14.8822 118.85 15.3298C117.744 15.3298 116.646 15.3158 115.555 15.2879C114.464 15.2599 113.233 15.2459 111.862 15.2459C111.386 15.2459 110.96 15.2529 110.582 15.2669C110.204 15.2949 109.813 15.3089 109.407 15.3089C109.351 15.2529 109.323 15.155 109.323 15.0151C109.337 14.8752 109.365 14.7773 109.407 14.7213C109.491 14.7213 109.645 14.7143 109.869 14.7003C110.092 14.6723 110.302 14.6304 110.498 14.5744C110.708 14.5185 110.82 14.4555 110.834 14.3856C110.89 14.2177 110.918 14.0009 110.918 13.7351C110.932 13.4693 110.939 13.1825 110.939 12.8748V4.12459C110.939 3.81683 110.932 3.53005 110.918 3.26426C110.918 2.98448 110.89 2.76066 110.834 2.59279C110.82 2.50885 110.708 2.4459 110.498 2.40393C110.302 2.36197 110.092 2.33399 109.869 2.32C109.645 2.29202 109.491 2.27803 109.407 2.27803C109.365 2.22208 109.337 2.12415 109.323 1.98426C109.323 1.84437 109.351 1.74645 109.407 1.69049C109.827 1.70448 110.239 1.72546 110.645 1.75344C111.051 1.76743 111.449 1.77443 111.841 1.77443C112.247 1.77443 112.638 1.76743 113.016 1.75344C113.408 1.72546 113.813 1.70448 114.233 1.69049C114.289 1.74645 114.31 1.84437 114.296 1.98426C114.296 2.12415 114.275 2.22208 114.233 2.27803C114.149 2.27803 113.995 2.29202 113.771 2.32C113.548 2.33399 113.338 2.36197 113.142 2.40393C112.946 2.4459 112.834 2.50885 112.806 2.59279C112.764 2.73268 112.736 2.91453 112.722 3.13836C112.722 3.36219 112.722 3.60699 112.722 3.87279C112.722 3.91475 112.722 3.95672 112.722 3.99869C112.722 4.04065 112.722 4.08262 112.722 4.12459V12.8748Z" fill="white"/>
<path d="M123.378 1.77443C124.343 1.77443 125.406 1.75344 126.567 1.71147C127.728 1.66951 128.862 1.64852 129.967 1.64852C130.037 2.16612 130.128 2.64175 130.24 3.07541C130.351 3.50907 130.456 3.95672 130.554 4.41836C130.484 4.48831 130.365 4.52328 130.198 4.52328C130.016 4.52328 129.918 4.47432 129.904 4.37639C129.68 3.55104 129.365 3.02645 128.96 2.80262C128.554 2.5788 128.078 2.46688 127.533 2.46688H125.77C125.686 2.46688 125.532 2.47388 125.308 2.48787C125.085 2.48787 124.875 2.50186 124.679 2.52984C124.483 2.55781 124.371 2.60678 124.343 2.67672C124.301 2.81661 124.273 2.99847 124.259 3.22229C124.259 3.44612 124.259 3.67694 124.259 3.91475C124.259 4.01268 124.259 4.08962 124.259 4.14557V7.96459C124.259 8.02055 124.35 8.05552 124.532 8.06951C124.714 8.0835 124.917 8.09049 125.14 8.09049H126.211C126.7 8.09049 127.078 8.0765 127.344 8.04852C127.624 8.02055 127.826 7.95759 127.952 7.85967C128.078 7.76175 128.176 7.61486 128.246 7.41902C128.316 7.22317 128.393 6.95738 128.477 6.62164C128.491 6.52372 128.589 6.47475 128.771 6.47475C128.939 6.47475 129.057 6.50973 129.127 6.57967V10.4407C129.071 10.4966 128.96 10.5246 128.792 10.5246C128.624 10.5246 128.519 10.4756 128.477 10.3777C128.379 9.98601 128.295 9.70623 128.225 9.53836C128.169 9.3565 128.113 9.2376 128.057 9.18164C128.015 9.11169 127.959 9.05574 127.889 9.01377C127.819 8.95781 127.659 8.92284 127.407 8.90885C127.155 8.88087 126.875 8.86689 126.567 8.86689C126.274 8.8529 125.994 8.8459 125.728 8.8459C125.546 8.8459 125.336 8.8529 125.099 8.86689C124.875 8.86689 124.679 8.88087 124.511 8.90885C124.343 8.92284 124.259 8.96481 124.259 9.03475V12.9377C124.259 12.9657 124.259 13.0077 124.259 13.0636C124.259 13.2595 124.259 13.5113 124.259 13.819C124.273 14.1268 124.308 14.3016 124.364 14.3436C124.504 14.4415 124.672 14.5045 124.868 14.5325C125.078 14.5464 125.399 14.5534 125.833 14.5534H126.819C127.309 14.5534 127.791 14.5045 128.267 14.4066C128.743 14.3086 129.12 14.1687 129.4 13.9869C129.722 13.791 129.974 13.5113 130.156 13.1475C130.337 12.7698 130.512 12.3642 130.68 11.9305C130.708 11.8466 130.806 11.8046 130.974 11.8046C131.226 11.8046 131.394 11.8466 131.478 11.9305C131.282 12.4901 131.065 13.0846 130.827 13.7141C130.603 14.3436 130.456 14.8822 130.386 15.3298C129.281 15.3298 128.183 15.3158 127.092 15.2879C126.001 15.2599 124.77 15.2459 123.399 15.2459C122.923 15.2459 122.497 15.2529 122.119 15.2669C121.741 15.2949 121.349 15.3089 120.944 15.3089C120.888 15.2529 120.86 15.155 120.86 15.0151C120.874 14.8752 120.902 14.7773 120.944 14.7213C121.028 14.7213 121.182 14.7143 121.405 14.7003C121.629 14.6723 121.839 14.6304 122.035 14.5744C122.245 14.5185 122.357 14.4555 122.371 14.3856C122.427 14.2177 122.455 14.0009 122.455 13.7351C122.469 13.4693 122.476 13.1825 122.476 12.8748V4.12459C122.476 3.81683 122.469 3.53005 122.455 3.26426C122.455 2.98448 122.427 2.76066 122.371 2.59279C122.357 2.50885 122.245 2.4459 122.035 2.40393C121.839 2.36197 121.629 2.33399 121.405 2.32C121.182 2.29202 121.028 2.27803 120.944 2.27803C120.902 2.22208 120.874 2.12415 120.86 1.98426C120.86 1.84437 120.888 1.74645 120.944 1.69049C121.363 1.70448 121.776 1.72546 122.182 1.75344C122.587 1.76743 122.986 1.77443 123.378 1.77443Z" fill="white"/>
<path d="M72.421 21.4911C72.421 22.3165 72.2321 23.0439 71.8544 23.6734C71.4767 24.289 70.9451 24.7716 70.2597 25.1213C69.5882 25.457 68.8048 25.6249 67.9095 25.6249C67.7976 25.6249 67.6507 25.6109 67.4688 25.583C67.287 25.555 67.1401 25.513 67.0282 25.457C67.0002 25.4291 66.9443 25.3801 66.8603 25.3102C66.7764 25.2262 66.7344 25.1213 66.7344 24.9954C66.7344 24.9115 66.7694 24.8765 66.8393 24.8905C66.9513 24.9185 67.0702 24.9534 67.1961 24.9954C67.322 25.0234 67.4619 25.0374 67.6157 25.0374C68.4411 25.0374 69.1336 24.7646 69.6931 24.219C70.2527 23.6595 70.5325 22.8691 70.5325 21.8479C70.5325 20.8267 70.2527 20.0083 69.6931 19.3928C69.1336 18.7773 68.2872 18.4695 67.1541 18.4695C67.0282 18.4695 66.8324 18.4765 66.5666 18.4905C66.3148 18.5045 66.1679 18.5604 66.1259 18.6584C66.0699 18.7843 66.035 19.0011 66.021 19.3089C66.021 19.6026 66.021 19.9034 66.021 20.2111V28.9403C66.021 29.2481 66.021 29.5349 66.021 29.8007C66.035 30.0664 66.0699 30.2833 66.1259 30.4511C66.1539 30.5211 66.2658 30.584 66.4616 30.64C66.6575 30.696 66.8603 30.7379 67.0702 30.7659C67.294 30.7799 67.4479 30.7869 67.5318 30.7869C67.5738 30.8428 67.5948 30.9408 67.5948 31.0807C67.6087 31.2205 67.5878 31.3185 67.5318 31.3744C67.1121 31.3464 66.7064 31.3255 66.3148 31.3115C65.937 31.2835 65.5453 31.2695 65.1397 31.2695C64.748 31.2695 64.3493 31.2835 63.9436 31.3115C63.5519 31.3255 63.1462 31.3464 62.7266 31.3744C62.6706 31.3185 62.6426 31.2205 62.6426 31.0807C62.6566 30.9408 62.6846 30.8428 62.7266 30.7869C62.8105 30.7869 62.9574 30.7799 63.1672 30.7659C63.391 30.7379 63.6009 30.696 63.7967 30.64C64.0066 30.584 64.1185 30.5211 64.1325 30.4511C64.1884 30.2833 64.2164 30.0664 64.2164 29.8007C64.2304 29.5349 64.2374 29.2481 64.2374 28.9403V20.1902C64.2374 19.8824 64.2304 19.5956 64.2164 19.3298C64.2164 19.0501 64.1884 18.8262 64.1325 18.6584C64.1185 18.5744 64.0066 18.5115 63.7967 18.4695C63.6009 18.4275 63.391 18.3996 63.1672 18.3856C62.9574 18.3576 62.8105 18.3436 62.7266 18.3436C62.6846 18.2876 62.6566 18.1897 62.6426 18.0498C62.6426 17.9099 62.6706 17.812 62.7266 17.7561C63.1462 17.7701 63.5519 17.791 63.9436 17.819C64.3493 17.833 64.748 17.84 65.1397 17.84C65.5453 17.84 65.979 17.833 66.4407 17.819C66.9163 17.805 67.4549 17.798 68.0564 17.798C68.7838 17.798 69.4763 17.9449 70.1338 18.2387C70.8052 18.5185 71.3508 18.9311 71.7705 19.4767C72.2042 20.0223 72.421 20.6938 72.421 21.4911Z" fill="white"/>
<path d="M80.6708 17.6511C81.5801 17.6511 82.4334 17.819 83.2308 18.1548C84.0422 18.4905 84.7556 18.9731 85.3711 19.6026C85.9867 20.2181 86.4693 20.9526 86.819 21.8059C87.1827 22.6452 87.3646 23.5755 87.3646 24.5967C87.3646 25.562 87.1827 26.4643 86.819 27.3036C86.4693 28.129 85.9867 28.8634 85.3711 29.5069C84.7556 30.1364 84.0422 30.633 83.2308 30.9967C82.4334 31.3464 81.5801 31.5213 80.6708 31.5213C79.7755 31.5213 78.9222 31.3534 78.1108 31.0177C77.3134 30.682 76.607 30.2063 75.9915 29.5908C75.3899 28.9613 74.9143 28.2269 74.5646 27.3875C74.2149 26.5342 74.04 25.6039 74.04 24.5967C74.04 23.6315 74.2149 22.7292 74.5646 21.8898C74.9143 21.0505 75.3899 20.3161 75.9915 19.6866C76.607 19.0431 77.3134 18.5464 78.1108 18.1967C78.9222 17.833 79.7755 17.6511 80.6708 17.6511ZM80.3771 18.3436C79.6077 18.3436 78.9502 18.5185 78.4046 18.8682C77.859 19.2039 77.4114 19.6516 77.0616 20.2111C76.7259 20.7707 76.4741 21.3932 76.3062 22.0787C76.1523 22.7642 76.0754 23.4496 76.0754 24.1351C76.0754 24.9325 76.1803 25.7298 76.3902 26.5272C76.614 27.3106 76.9357 28.031 77.3554 28.6885C77.7751 29.332 78.2857 29.8496 78.8872 30.2413C79.5027 30.633 80.2092 30.8289 81.0066 30.8289C81.776 30.8289 82.4334 30.661 82.979 30.3252C83.5246 29.9755 83.9722 29.5139 84.322 28.9403C84.6717 28.3668 84.9235 27.7373 85.0774 27.0518C85.2452 26.3523 85.3292 25.6599 85.3292 24.9744C85.3292 24.177 85.2173 23.3867 84.9934 22.6033C84.7836 21.8199 84.4619 21.1064 84.0282 20.4629C83.6085 19.8195 83.0909 19.3089 82.4754 18.9311C81.8739 18.5395 81.1744 18.3436 80.3771 18.3436Z" fill="white"/>
<path d="M91.5336 17.84C91.9393 17.84 92.331 17.833 92.7087 17.819C93.1004 17.791 93.5061 17.7701 93.9257 17.7561C93.9817 17.812 94.0027 17.9099 93.9887 18.0498C93.9887 18.1897 93.9677 18.2876 93.9257 18.3436C93.8418 18.3436 93.6879 18.3576 93.4641 18.3856C93.2403 18.3996 93.0304 18.4275 92.8346 18.4695C92.6387 18.5115 92.5268 18.5744 92.4988 18.6584C92.4569 18.7983 92.4289 18.9801 92.4149 19.2039C92.4149 19.4278 92.4149 19.6726 92.4149 19.9384C92.4149 19.9803 92.4149 20.0223 92.4149 20.0643C92.4149 20.1062 92.4149 20.1482 92.4149 20.1902V28.9403C92.4149 28.9823 92.4149 29.0243 92.4149 29.0662C92.4149 29.1082 92.4149 29.1502 92.4149 29.1921C92.4149 29.4579 92.4149 29.7027 92.4149 29.9266C92.4289 30.1364 92.4569 30.3113 92.4988 30.4511C92.5268 30.5211 92.6387 30.584 92.8346 30.64C93.0304 30.696 93.2403 30.7379 93.4641 30.7659C93.6879 30.7799 93.8418 30.7869 93.9257 30.7869C93.9677 30.8428 93.9887 30.9408 93.9887 31.0807C94.0027 31.2205 93.9817 31.3185 93.9257 31.3744C93.5061 31.3464 93.1004 31.3255 92.7087 31.3115C92.331 31.2835 91.9393 31.2695 91.5336 31.2695C91.1419 31.2695 90.7432 31.2835 90.3375 31.3115C89.9319 31.3255 89.5192 31.3464 89.0995 31.3744C89.0436 31.3185 89.0156 31.2205 89.0156 31.0807C89.0296 30.9408 89.0575 30.8428 89.0995 30.7869C89.1834 30.7869 89.3373 30.7799 89.5611 30.7659C89.785 30.7379 89.9948 30.696 90.1907 30.64C90.4005 30.584 90.5124 30.5211 90.5264 30.4511C90.5824 30.2833 90.6103 30.0664 90.6103 29.8007C90.6243 29.5349 90.6313 29.2481 90.6313 28.9403V20.1902C90.6313 19.8824 90.6243 19.5956 90.6103 19.3298C90.6103 19.0501 90.5824 18.8262 90.5264 18.6584C90.5124 18.5744 90.4005 18.5115 90.1907 18.4695C89.9948 18.4275 89.785 18.3996 89.5611 18.3856C89.3373 18.3576 89.1834 18.3436 89.0995 18.3436C89.0575 18.2876 89.0296 18.1897 89.0156 18.0498C89.0156 17.9099 89.0436 17.812 89.0995 17.7561C89.5192 17.7701 89.9319 17.791 90.3375 17.819C90.7432 17.833 91.1419 17.84 91.5336 17.84Z" fill="white"/>
<path d="M97.7533 17.777C98.061 17.777 98.3618 17.777 98.6556 17.777C98.9493 17.777 99.1662 17.7701 99.3061 17.7561C99.5159 18.0778 99.8516 18.5325 100.313 19.12C100.775 19.7075 101.313 20.379 101.929 21.1344C102.545 21.8758 103.181 22.6452 103.839 23.4426C104.496 24.24 105.133 25.0304 105.748 25.8138C106.364 26.5832 106.895 27.2826 107.343 27.9121V20.1482C107.343 19.7845 107.336 19.4977 107.322 19.2879C107.308 19.078 107.245 18.8892 107.133 18.7213C107.091 18.6514 106.965 18.5884 106.755 18.5325C106.545 18.4625 106.322 18.4136 106.084 18.3856C105.86 18.3436 105.692 18.3226 105.58 18.3226C105.524 18.2527 105.496 18.1548 105.496 18.0289C105.51 17.889 105.524 17.791 105.538 17.7351C105.944 17.7491 106.322 17.7701 106.671 17.798C107.035 17.812 107.441 17.819 107.888 17.819C108.21 17.819 108.469 17.819 108.665 17.819C108.875 17.805 109.084 17.791 109.294 17.777C109.518 17.7631 109.784 17.7491 110.092 17.7351C110.12 17.791 110.141 17.875 110.155 17.9869C110.169 18.0988 110.148 18.2107 110.092 18.3226C110.008 18.3226 109.84 18.3366 109.588 18.3646C109.35 18.3926 109.119 18.4415 108.896 18.5115C108.672 18.5674 108.532 18.6374 108.476 18.7213C108.378 18.8752 108.322 19.0501 108.308 19.2459C108.294 19.4417 108.287 19.7355 108.287 20.1272V28.4577C108.287 28.8494 108.287 29.1921 108.287 29.4859C108.287 29.7797 108.287 30.0664 108.287 30.3462C108.301 30.612 108.315 30.9268 108.329 31.2905C108.315 31.3464 108.273 31.3814 108.203 31.3954C108.133 31.4094 108.084 31.4164 108.056 31.4164C108 31.4164 107.902 31.3814 107.762 31.3115C107.637 31.2415 107.497 31.1156 107.343 30.9338L98.4038 19.6446V28.9613C98.4038 29.325 98.4108 29.6118 98.4248 29.8216C98.4527 30.0175 98.5157 30.1993 98.6136 30.3672C98.6556 30.4372 98.7745 30.5071 98.9703 30.577C99.1802 30.633 99.397 30.682 99.6208 30.7239C99.8586 30.7659 100.034 30.7869 100.145 30.7869C100.201 30.8568 100.229 30.9548 100.229 31.0807C100.229 31.2066 100.215 31.3045 100.187 31.3744C99.7817 31.3464 99.404 31.3255 99.0543 31.3115C98.7045 31.2835 98.3058 31.2695 97.8582 31.2695C97.5504 31.2695 97.2846 31.2765 97.0608 31.2905C96.851 31.3045 96.6412 31.3185 96.4313 31.3325C96.2355 31.3464 95.9767 31.3604 95.6549 31.3744C95.6269 31.3185 95.606 31.2345 95.592 31.1226C95.578 31.0107 95.599 30.8988 95.6549 30.7869C95.7389 30.7869 95.8997 30.7729 96.1375 30.7449C96.3754 30.703 96.6062 30.654 96.83 30.598C97.0678 30.5281 97.2077 30.4511 97.2497 30.3672C97.3476 30.2133 97.4035 30.0455 97.4175 29.8636C97.4455 29.6678 97.4595 29.374 97.4595 28.9823V20.0852C97.4595 19.6936 97.4455 19.3998 97.4175 19.2039C97.4035 19.0081 97.3476 18.8332 97.2497 18.6793C97.2077 18.5954 97.0678 18.5255 96.83 18.4695C96.6062 18.3996 96.3754 18.3506 96.1375 18.3226C95.8997 18.2946 95.7389 18.2807 95.6549 18.2807C95.599 18.1687 95.578 18.0568 95.592 17.9449C95.606 17.833 95.6269 17.7491 95.6549 17.6931C96.1305 17.7071 96.5152 17.7281 96.809 17.7561C97.1028 17.7701 97.4175 17.777 97.7533 17.777Z" fill="white"/>
<path d="M121.105 17.7561C121.272 17.7561 121.489 17.7211 121.755 17.6511C122.021 17.5812 122.217 17.5183 122.343 17.4623C122.455 17.4063 122.531 17.3784 122.573 17.3784C122.615 17.3784 122.664 17.3923 122.72 17.4203C122.79 18.0498 122.867 18.6584 122.951 19.2459C123.049 19.8334 123.154 20.4 123.266 20.9456C123.238 20.9736 123.189 21.0085 123.119 21.0505C123.049 21.0925 122.965 21.1064 122.867 21.0925C122.713 21.0925 122.615 21.0575 122.573 20.9875C122.434 20.2741 122.203 19.6796 121.881 19.2039C121.559 18.7283 121.14 18.4905 120.622 18.4905H118.02V28.9403C118.02 29.2481 118.02 29.5349 118.02 29.8007C118.034 30.0664 118.069 30.2833 118.125 30.4511C118.153 30.5211 118.265 30.584 118.461 30.64C118.657 30.696 118.859 30.7379 119.069 30.7659C119.293 30.7799 119.447 30.7869 119.531 30.7869C119.573 30.8428 119.594 30.9408 119.594 31.0807C119.608 31.2205 119.587 31.3185 119.531 31.3744C119.111 31.3464 118.705 31.3255 118.314 31.3115C117.936 31.2835 117.544 31.2695 117.139 31.2695C116.747 31.2695 116.348 31.2835 115.943 31.3115C115.537 31.3255 115.124 31.3464 114.705 31.3744C114.649 31.3185 114.621 31.2205 114.621 31.0807C114.635 30.9408 114.663 30.8428 114.705 30.7869C114.789 30.7869 114.942 30.7799 115.166 30.7659C115.39 30.7379 115.6 30.696 115.796 30.64C116.006 30.584 116.117 30.5211 116.131 30.4511C116.187 30.2833 116.215 30.0664 116.215 29.8007C116.229 29.5349 116.236 29.2481 116.236 28.9403V18.4905H113.592C113.075 18.4905 112.655 18.7283 112.333 19.2039C112.012 19.6796 111.774 20.2741 111.62 20.9875C111.578 21.0575 111.48 21.0925 111.326 21.0925C111.228 21.1064 111.144 21.0925 111.074 21.0505C111.018 21.0085 110.977 20.9736 110.949 20.9456C111.06 20.4 111.158 19.8334 111.242 19.2459C111.326 18.6584 111.403 18.0498 111.473 17.4203C111.543 17.3923 111.627 17.3923 111.725 17.4203C111.823 17.4343 111.9 17.4553 111.956 17.4833C112.082 17.5392 112.257 17.6022 112.48 17.6721C112.718 17.7281 112.921 17.7561 113.089 17.7561H121.105Z" fill="white"/>
<path d="M65.1607 33.9056C65.5663 33.9056 65.958 33.8986 66.3357 33.8846C66.7274 33.8566 67.1331 33.8356 67.5528 33.8216C67.6087 33.8776 67.6297 33.9895 67.6157 34.1574C67.6157 34.3113 67.5947 34.4162 67.5528 34.4721C67.4688 34.4721 67.315 34.4861 67.0911 34.5141C66.8673 34.5281 66.6575 34.5561 66.4616 34.598C66.2658 34.64 66.1539 34.7029 66.1259 34.7869C66.0839 34.9268 66.056 35.1086 66.042 35.3325C66.042 35.5563 66.042 35.8011 66.042 36.0669C66.042 36.1089 66.042 36.1508 66.042 36.1928C66.042 36.2348 66.042 36.2767 66.042 36.3187V39.9069C66.042 39.9209 66.049 39.9349 66.063 39.9489C66.0769 39.9489 66.0839 39.9489 66.0839 39.9489C66.5875 39.9628 67.1051 39.9768 67.6367 39.9908C68.1683 40.0048 68.7209 40.0118 69.2944 40.0118C69.784 40.0118 70.3086 40.0048 70.8682 39.9908C71.4417 39.9768 71.9593 39.9628 72.421 39.9489C72.421 39.9489 72.428 39.9419 72.442 39.9279C72.456 39.9139 72.463 39.8999 72.463 39.8859V36.3187C72.463 36.0109 72.456 35.7242 72.442 35.4584C72.442 35.1786 72.414 34.9548 72.358 34.7869C72.344 34.7029 72.2321 34.64 72.0223 34.598C71.8264 34.5561 71.6166 34.5281 71.3928 34.5141C71.183 34.4861 71.0361 34.4721 70.9521 34.4721C70.9102 34.4162 70.8822 34.3113 70.8682 34.1574C70.8682 33.9895 70.8962 33.8776 70.9521 33.8216C71.3718 33.8356 71.7775 33.8566 72.1692 33.8846C72.5749 33.8986 72.9736 33.9056 73.3652 33.9056C73.7709 33.9056 74.1626 33.8986 74.5403 33.8846C74.932 33.8566 75.3377 33.8356 75.7574 33.8216C75.8133 33.8776 75.8343 33.9895 75.8203 34.1574C75.8203 34.3113 75.7993 34.4162 75.7574 34.4721C75.6734 34.4721 75.5196 34.4861 75.2957 34.5141C75.0859 34.5281 74.8831 34.5561 74.6872 34.598C74.4914 34.64 74.3795 34.7029 74.3515 34.7869C74.2955 34.9548 74.2606 35.1786 74.2466 35.4584C74.2466 35.7242 74.2466 36.0109 74.2466 36.3187V44.943C74.2466 45.2507 74.2466 45.5375 74.2466 45.8033C74.2606 46.0691 74.2955 46.2859 74.3515 46.4538C74.3795 46.5237 74.4914 46.5867 74.6872 46.6426C74.8831 46.6986 75.0859 46.7405 75.2957 46.7685C75.5196 46.7825 75.6734 46.7895 75.7574 46.7895C75.7993 46.8455 75.8203 46.9574 75.8203 47.1252C75.8343 47.2791 75.8133 47.384 75.7574 47.44C75.3377 47.412 74.932 47.391 74.5403 47.377C74.1626 47.3491 73.7709 47.3351 73.3652 47.3351C72.9736 47.3351 72.5749 47.3491 72.1692 47.377C71.7775 47.391 71.3718 47.412 70.9521 47.44C70.8962 47.384 70.8682 47.2791 70.8682 47.1252C70.8822 46.9574 70.9102 46.8455 70.9521 46.7895C71.0361 46.7895 71.183 46.7825 71.3928 46.7685C71.6166 46.7405 71.8264 46.6986 72.0223 46.6426C72.2321 46.5867 72.344 46.5237 72.358 46.4538C72.414 46.2859 72.442 46.0691 72.442 45.8033C72.456 45.5375 72.463 45.2507 72.463 44.943V40.8721C72.463 40.8442 72.456 40.8302 72.442 40.8302C72.428 40.8162 72.421 40.8092 72.421 40.8092C71.9454 40.7952 71.4348 40.7812 70.8892 40.7672C70.3576 40.7392 69.826 40.7252 69.2944 40.7252C68.3432 40.7252 67.6437 40.7322 67.1961 40.7462C66.7484 40.7602 66.4546 40.7742 66.3148 40.7882C66.1749 40.8022 66.0909 40.8162 66.063 40.8302C66.049 40.8442 66.042 40.8581 66.042 40.8721V44.943C66.042 44.9849 66.042 45.0269 66.042 45.0689C66.042 45.1108 66.042 45.1528 66.042 45.1948C66.042 45.4605 66.042 45.7054 66.042 45.9292C66.056 46.139 66.0839 46.3139 66.1259 46.4538C66.1539 46.5237 66.2658 46.5867 66.4616 46.6426C66.6575 46.6986 66.8673 46.7405 67.0911 46.7685C67.315 46.7825 67.4688 46.7895 67.5528 46.7895C67.5947 46.8455 67.6157 46.9574 67.6157 47.1252C67.6297 47.2791 67.6087 47.384 67.5528 47.44C67.1331 47.412 66.7274 47.391 66.3357 47.377C65.958 47.3491 65.5663 47.3351 65.1607 47.3351C64.769 47.3351 64.3703 47.3491 63.9646 47.377C63.5589 47.391 63.1462 47.412 62.7266 47.44C62.6706 47.384 62.6426 47.2791 62.6426 47.1252C62.6566 46.9574 62.6846 46.8455 62.7266 46.7895C62.8105 46.7895 62.9644 46.7825 63.1882 46.7685C63.412 46.7405 63.6219 46.6986 63.8177 46.6426C64.0275 46.5867 64.1395 46.5237 64.1534 46.4538C64.2094 46.2859 64.2374 46.0691 64.2374 45.8033C64.2514 45.5375 64.2584 45.2507 64.2584 44.943V36.3187C64.2584 36.0109 64.2514 35.7242 64.2374 35.4584C64.2374 35.1786 64.2094 34.9548 64.1534 34.7869C64.1395 34.7029 64.0275 34.64 63.8177 34.598C63.6219 34.5561 63.412 34.5281 63.1882 34.5141C62.9644 34.4861 62.8105 34.4721 62.7266 34.4721C62.6846 34.4162 62.6566 34.3113 62.6426 34.1574C62.6426 33.9895 62.6706 33.8776 62.7266 33.8216C63.1462 33.8356 63.5589 33.8566 63.9646 33.8846C64.3703 33.8986 64.769 33.9056 65.1607 33.9056Z" fill="white"/>
<path d="M84.1134 33.7167C85.0227 33.7167 85.8761 33.8846 86.6734 34.2203C87.4848 34.5561 88.1982 35.0387 88.8138 35.6682C89.4293 36.2837 89.9119 37.0181 90.2616 37.8715C90.6254 38.7108 90.8072 39.6411 90.8072 40.6623C90.8072 41.6275 90.6254 42.5298 90.2616 43.3692C89.9119 44.1945 89.4293 44.929 88.8138 45.5725C88.1982 46.202 87.4848 46.6986 86.6734 47.0623C85.8761 47.412 85.0227 47.5869 84.1134 47.5869C83.2181 47.5869 82.3648 47.419 81.5534 47.0833C80.7561 46.7475 80.0496 46.2719 79.4341 45.6564C78.8326 45.0269 78.3569 44.2925 78.0072 43.4531C77.6575 42.5998 77.4826 41.6695 77.4826 40.6623C77.4826 39.697 77.6575 38.7948 78.0072 37.9554C78.3569 37.1161 78.8326 36.3816 79.4341 35.7521C80.0496 35.1086 80.7561 34.612 81.5534 34.2623C82.3648 33.8986 83.2181 33.7167 84.1134 33.7167ZM83.8197 34.4092C83.0503 34.4092 82.3928 34.584 81.8472 34.9338C81.3016 35.2695 80.854 35.7172 80.5043 36.2767C80.1685 36.8363 79.9167 37.4588 79.7488 38.1443C79.595 38.8297 79.518 39.5152 79.518 40.2007C79.518 40.998 79.623 41.7954 79.8328 42.5928C80.0566 43.3762 80.3784 44.0966 80.798 44.7541C81.2177 45.3976 81.7283 45.9152 82.3298 46.3069C82.9454 46.6986 83.6518 46.8944 84.4492 46.8944C85.2186 46.8944 85.8761 46.7266 86.4216 46.3908C86.9672 46.0411 87.4149 45.5795 87.7646 45.0059C88.1143 44.4324 88.3661 43.8028 88.52 43.1174C88.6879 42.4179 88.7718 41.7255 88.7718 41.04C88.7718 40.2426 88.6599 39.4522 88.4361 38.6689C88.2262 37.8855 87.9045 37.172 87.4708 36.5285C87.0511 35.885 86.5335 35.3744 85.918 34.9967C85.3165 34.605 84.6171 34.4092 83.8197 34.4092Z" fill="white"/>
<path d="M94.9143 33.9056C95.264 33.9056 95.5717 33.8986 95.8375 33.8846C96.1033 33.8566 96.3481 33.8356 96.572 33.8216C96.6559 34.0874 96.8098 34.5001 97.0336 35.0597C97.2714 35.6192 97.5442 36.2837 97.852 37.0531C98.1737 37.8085 98.5164 38.6129 98.8802 39.4662C99.2439 40.3196 99.6006 41.1729 99.9503 42.0262C100.3 42.8656 100.622 43.649 100.916 44.3764C100.93 44.4044 100.958 44.4184 101 44.4184C101.041 44.4184 101.069 44.3904 101.083 44.3344C101.489 43.2992 101.853 42.369 102.175 41.5436C102.496 40.7043 102.818 39.8719 103.14 39.0466C103.476 38.2072 103.839 37.2839 104.231 36.2767C104.357 35.955 104.49 35.6052 104.63 35.2275C104.77 34.8498 104.888 34.5211 104.986 34.2413C105.084 33.9615 105.133 33.8216 105.133 33.8216C105.791 33.8636 106.329 33.8846 106.749 33.8846C107.113 33.8846 107.518 33.8776 107.966 33.8636C108.428 33.8496 108.784 33.8356 109.036 33.8216C109.05 33.8496 109.064 33.9545 109.078 34.1364C109.092 34.3182 109.099 34.4092 109.099 34.4092C109.001 34.4092 108.84 34.4232 108.617 34.4511C108.407 34.4791 108.204 34.5211 108.008 34.577C107.812 34.633 107.693 34.696 107.651 34.7659C107.609 34.8638 107.581 34.9897 107.567 35.1436C107.553 35.2975 107.546 35.4374 107.546 35.5633C107.56 35.913 107.574 36.4446 107.588 37.158C107.602 37.8715 107.616 38.6758 107.63 39.5711C107.658 40.4525 107.679 41.3268 107.693 42.1941C107.721 43.0614 107.742 43.8308 107.756 44.5023C107.77 44.894 107.791 45.2647 107.819 45.6144C107.847 45.9641 107.91 46.2579 108.008 46.4957C108.05 46.5937 108.176 46.6706 108.386 46.7266C108.596 46.7685 108.805 46.8035 109.015 46.8315C109.239 46.8455 109.379 46.8525 109.435 46.8525C109.491 46.9504 109.512 47.0693 109.498 47.2092C109.498 47.3351 109.491 47.412 109.477 47.44C109.071 47.412 108.673 47.391 108.281 47.377C107.903 47.3491 107.49 47.3351 107.043 47.3351C106.567 47.3351 106.154 47.3491 105.805 47.377C105.455 47.391 105.042 47.412 104.567 47.44C104.553 47.412 104.539 47.3281 104.525 47.1882C104.511 47.0483 104.525 46.9364 104.567 46.8525C104.651 46.8525 104.784 46.8455 104.965 46.8315C105.147 46.8035 105.329 46.7755 105.511 46.7475C105.693 46.7056 105.826 46.6636 105.91 46.6216C105.98 46.5797 106.029 46.4608 106.057 46.2649C106.085 46.0691 106.099 45.9012 106.099 45.7613C106.099 45.6074 106.092 45.4116 106.078 45.1738C106.064 44.922 106.057 44.7191 106.057 44.5652C106.029 43.572 106.001 42.6208 105.973 41.7115C105.945 40.7882 105.917 39.8509 105.889 38.8997C105.861 37.9344 105.826 36.8992 105.784 35.7941C105.784 35.7521 105.77 35.6752 105.742 35.5633C105.714 35.4514 105.665 35.3954 105.595 35.3954C105.567 35.3954 105.532 35.4444 105.49 35.5423C105.07 36.5915 104.679 37.5637 104.315 38.459C103.965 39.3543 103.622 40.2216 103.287 41.061C102.951 41.8863 102.608 42.7327 102.259 43.6C101.923 44.4533 101.559 45.3766 101.167 46.3698C101.139 46.4258 101.076 46.5377 100.979 46.7056C100.881 46.8734 100.776 47.0343 100.664 47.1882C100.566 47.3281 100.475 47.405 100.391 47.419C100.363 47.433 100.314 47.426 100.244 47.398C100.23 47.384 100.216 47.377 100.202 47.377L95.208 35.4164C95.194 36.3117 95.1731 37.235 95.1451 38.1862C95.1171 39.1375 95.0891 40.0608 95.0611 40.9561C95.0472 41.8514 95.0262 42.6627 94.9982 43.3902C94.9842 44.1036 94.9702 44.6842 94.9562 45.1318C94.9422 45.5655 94.9352 45.8033 94.9352 45.8452C94.9352 45.9432 94.9422 46.0551 94.9562 46.181C94.9702 46.2929 94.9912 46.3908 95.0192 46.4748C95.0611 46.5727 95.201 46.6496 95.4389 46.7056C95.6907 46.7615 95.9425 46.8035 96.1943 46.8315C96.4461 46.8455 96.5999 46.8525 96.6559 46.8525C96.7119 46.9084 96.7328 47.0133 96.7188 47.1672C96.7049 47.3211 96.6909 47.412 96.6769 47.44C96.2712 47.412 95.9215 47.391 95.6277 47.377C95.3339 47.3491 94.9632 47.3351 94.5156 47.3351C94.0399 47.3351 93.6413 47.3491 93.3195 47.377C92.9978 47.391 92.5991 47.412 92.1234 47.44C92.1095 47.412 92.0955 47.3281 92.0815 47.1882C92.0675 47.0483 92.0815 46.9364 92.1234 46.8525C92.2074 46.8525 92.3682 46.8385 92.6061 46.8105C92.8579 46.7825 93.1027 46.7405 93.3405 46.6846C93.5783 46.6286 93.7252 46.5587 93.7811 46.4748C93.8791 46.3349 93.942 46.188 93.97 46.0341C93.998 45.8662 94.019 45.6704 94.033 45.4466C94.0749 44.2155 94.1099 43.0334 94.1379 41.9003C94.1798 40.7672 94.2078 39.753 94.2218 38.8577C94.2498 37.9484 94.2708 37.214 94.2848 36.6544C94.2987 36.0809 94.3057 35.7451 94.3057 35.6472C94.3057 35.4933 94.2987 35.3464 94.2848 35.2066C94.2848 35.0667 94.2638 34.9408 94.2218 34.8288C94.1938 34.7449 94.0749 34.675 93.8651 34.619C93.6692 34.5491 93.4594 34.5001 93.2356 34.4721C93.0257 34.4302 92.8789 34.4092 92.7949 34.4092C92.7809 34.4092 92.7739 34.3182 92.7739 34.1364C92.7739 33.9405 92.7809 33.8356 92.7949 33.8216C93.1167 33.8356 93.3755 33.8496 93.5713 33.8636C93.7672 33.8776 93.963 33.8916 94.1589 33.9056C94.3547 33.9056 94.6065 33.9056 94.9143 33.9056Z" fill="white"/>
<path d="M113.501 33.9056C114.466 33.9056 115.529 33.8846 116.69 33.8426C117.851 33.8007 118.985 33.7797 120.09 33.7797C120.16 34.2973 120.251 34.7729 120.362 35.2066C120.474 35.6402 120.579 36.0879 120.677 36.5495C120.607 36.6195 120.488 36.6544 120.32 36.6544C120.139 36.6544 120.041 36.6055 120.027 36.5075C119.803 35.6822 119.488 35.1576 119.082 34.9338C118.677 34.7099 118.201 34.598 117.656 34.598H115.893C115.809 34.598 115.655 34.605 115.431 34.619C115.207 34.619 114.998 34.633 114.802 34.661C114.606 34.689 114.494 34.7379 114.466 34.8079C114.424 34.9478 114.396 35.1296 114.382 35.3534C114.382 35.5773 114.382 35.8081 114.382 36.0459C114.382 36.1438 114.382 36.2208 114.382 36.2767V40.0957C114.382 40.1517 114.473 40.1867 114.655 40.2007C114.837 40.2146 115.04 40.2216 115.263 40.2216H116.334C116.823 40.2216 117.201 40.2076 117.467 40.1797C117.746 40.1517 117.949 40.0887 118.075 39.9908C118.201 39.8929 118.299 39.746 118.369 39.5502C118.439 39.3543 118.516 39.0885 118.6 38.7528C118.614 38.6549 118.712 38.6059 118.894 38.6059C119.061 38.6059 119.18 38.6409 119.25 38.7108V42.5718C119.194 42.6278 119.082 42.6557 118.915 42.6557C118.747 42.6557 118.642 42.6068 118.6 42.5089C118.502 42.1172 118.418 41.8374 118.348 41.6695C118.292 41.4876 118.236 41.3687 118.18 41.3128C118.138 41.2428 118.082 41.1869 118.012 41.1449C117.942 41.089 117.781 41.054 117.53 41.04C117.278 41.012 116.998 40.998 116.69 40.998C116.397 40.984 116.117 40.977 115.851 40.977C115.669 40.977 115.459 40.984 115.221 40.998C114.998 40.998 114.802 41.012 114.634 41.04C114.466 41.054 114.382 41.096 114.382 41.1659V45.0689C114.382 45.0968 114.382 45.1388 114.382 45.1948C114.382 45.3906 114.382 45.6424 114.382 45.9502C114.396 46.2579 114.431 46.4328 114.487 46.4748C114.627 46.5727 114.795 46.6356 114.991 46.6636C115.2 46.6776 115.522 46.6846 115.956 46.6846H116.942C117.432 46.6846 117.914 46.6356 118.39 46.5377C118.866 46.4398 119.243 46.2999 119.523 46.118C119.845 45.9222 120.097 45.6424 120.279 45.2787C120.46 44.901 120.635 44.4953 120.803 44.0616C120.831 43.9777 120.929 43.9357 121.097 43.9357C121.349 43.9357 121.517 43.9777 121.6 44.0616C121.405 44.6212 121.188 45.2157 120.95 45.8452C120.726 46.4748 120.579 47.0133 120.509 47.461C119.404 47.461 118.306 47.447 117.215 47.419C116.124 47.391 114.893 47.377 113.522 47.377C113.046 47.377 112.62 47.384 112.242 47.398C111.864 47.426 111.472 47.44 111.067 47.44C111.011 47.384 110.983 47.2861 110.983 47.1462C110.997 47.0063 111.025 46.9084 111.067 46.8525C111.151 46.8525 111.305 46.8455 111.528 46.8315C111.752 46.8035 111.962 46.7615 112.158 46.7056C112.368 46.6496 112.48 46.5867 112.494 46.5167C112.55 46.3489 112.578 46.132 112.578 45.8662C112.592 45.6004 112.599 45.3137 112.599 45.0059V36.2557C112.599 35.948 112.592 35.6612 112.578 35.3954C112.578 35.1156 112.55 34.8918 112.494 34.7239C112.48 34.64 112.368 34.577 112.158 34.5351C111.962 34.4931 111.752 34.4651 111.528 34.4511C111.305 34.4232 111.151 34.4092 111.067 34.4092C111.025 34.3532 110.997 34.2553 110.983 34.1154C110.983 33.9755 111.011 33.8776 111.067 33.8216C111.486 33.8356 111.899 33.8566 112.305 33.8846C112.71 33.8986 113.109 33.9056 113.501 33.9056Z" fill="white"/>
<path d="M127.523 33.7377C127.957 33.7377 128.313 33.7657 128.593 33.8216C128.887 33.8636 129.181 33.9266 129.474 34.0105C129.782 34.0944 130.16 34.1923 130.608 34.3043C130.691 34.8358 130.754 35.3884 130.796 35.962C130.852 36.5215 130.887 36.9412 130.901 37.221C130.915 37.2909 130.866 37.3469 130.754 37.3889C130.643 37.4168 130.552 37.4308 130.482 37.4308C130.384 37.4308 130.307 37.4028 130.251 37.3469C130.223 37.0951 130.139 36.8013 129.999 36.4656C129.859 36.1298 129.663 35.8081 129.411 35.5003C129.174 35.1926 128.88 34.9408 128.53 34.7449C128.194 34.5351 127.81 34.4302 127.376 34.4302C126.817 34.4302 126.376 34.5491 126.054 34.7869C125.732 35.0247 125.502 35.3185 125.362 35.6682C125.222 36.0179 125.152 36.3607 125.152 36.6964C125.152 37.242 125.292 37.6966 125.571 38.0603C125.865 38.424 126.229 38.7458 126.663 39.0256C127.11 39.3054 127.558 39.5921 128.006 39.8859C128.341 40.0957 128.712 40.3266 129.118 40.5784C129.523 40.8302 129.915 41.1099 130.293 41.4177C130.67 41.7255 130.978 42.0822 131.216 42.4879C131.454 42.8796 131.573 43.3272 131.573 43.8308C131.573 44.5722 131.363 45.2297 130.943 45.8033C130.538 46.3628 130.006 46.8035 129.349 47.1252C128.705 47.433 128.02 47.5869 127.292 47.5869C126.607 47.5869 125.942 47.5099 125.299 47.3561C124.669 47.2022 124.103 47.0763 123.599 46.9784C123.515 46.5727 123.438 46.139 123.368 45.6774C123.312 45.2157 123.263 44.8101 123.221 44.4603C123.193 44.1106 123.179 43.8938 123.179 43.8098C123.249 43.7399 123.326 43.6839 123.41 43.642C123.508 43.586 123.606 43.558 123.704 43.558C123.83 43.558 123.907 43.621 123.935 43.7469C123.977 43.9427 124.061 44.2155 124.187 44.5652C124.326 44.901 124.522 45.2507 124.774 45.6144C125.04 45.9781 125.376 46.2859 125.781 46.5377C126.201 46.7755 126.719 46.8944 127.334 46.8944C127.992 46.8944 128.565 46.6776 129.055 46.2439C129.544 45.7963 129.789 45.1738 129.789 44.3764C129.789 43.8028 129.656 43.3552 129.39 43.0334C129.139 42.7117 128.803 42.4319 128.383 42.1941C127.978 41.9563 127.537 41.7045 127.061 41.4387C126.544 41.1309 126.005 40.7952 125.446 40.4315C124.9 40.0538 124.438 39.6131 124.061 39.1095C123.683 38.6059 123.494 38.0114 123.494 37.3259C123.494 36.5985 123.683 35.969 124.061 35.4374C124.452 34.8918 124.956 34.4721 125.571 34.1784C126.187 33.8846 126.837 33.7377 127.523 33.7377Z" fill="white"/>
<path d="M18.9407 3.02617C13.9278 3.98707 10.1281 5.9775 6.64878 9.45505C3.67309 12.4064 1.72744 15.7924 0.628725 19.8419C-0.126643 22.7475 -0.218203 27.6664 0.445605 30.5033C2.5057 39.3116 9.05223 45.8548 17.8649 47.9139C20.5201 48.5316 25.4186 48.5088 28.0509 47.8453C36.566 45.6947 42.9065 39.3573 45.0581 30.8465C45.7219 28.2155 45.7448 23.3195 45.1268 20.6655C43.1125 11.9946 36.7491 5.51993 28.1653 3.36935C25.7619 2.77451 21.2068 2.59148 18.9407 3.02617ZM26.7462 5.54281C30.5917 6.27493 34.3227 8.28824 37.2069 11.1709C45.1955 19.1556 45.1955 32.0133 37.2069 39.9979C29.2183 47.9825 16.3541 47.9825 8.36553 39.9979C0.376936 32.0133 0.376936 19.1556 8.36553 11.1709C11.181 8.35687 14.9578 6.2978 18.666 5.56569C20.6803 5.15388 24.6632 5.15388 26.7462 5.54281Z" fill="white"/>
<path d="M18.5516 5.84024C13.5615 6.89265 8.86911 10.1185 5.96208 14.4883C1.49854 21.1918 1.49854 29.9771 5.96208 36.7034C9.76182 42.3773 15.965 45.7176 22.7862 45.7176C28.4171 45.7176 32.9036 43.8415 36.978 39.7691C41.0524 35.6968 42.9294 31.2126 42.9294 25.5844C42.9294 19.9563 41.0524 15.4721 36.978 11.3997C34.7119 9.13475 32.7662 7.83067 30.111 6.75538C28.3485 6.06902 25.5101 5.4513 24.0451 5.4513C23.0151 5.4513 23.0151 5.4513 23.0151 6.25205C23.0151 6.68674 22.9235 7.0528 22.7862 7.0528C22.6717 7.0528 22.5573 6.68674 22.5573 6.25205V5.4513L21.367 5.47418C20.7032 5.47418 19.4443 5.63433 18.5516 5.84024ZM21.6646 8.76869L21.8248 9.45505L21.8477 8.70006C21.8706 8.21961 21.9851 7.96794 22.214 7.96794C22.4657 7.96794 22.5573 8.24249 22.5573 8.99748C22.5573 9.56944 22.6717 10.027 22.7862 10.027C22.9235 10.027 23.0151 9.56944 23.0151 8.99748C23.0151 8.24249 23.1067 7.96794 23.3584 7.96794C23.5873 7.96794 23.7018 8.21961 23.7247 8.70006L23.7476 9.45505L23.9078 8.76869C23.9994 8.35688 24.2283 8.05946 24.4801 8.0137C24.8463 7.92219 24.8921 8.0137 24.7547 8.74582C24.6632 9.27202 24.6861 9.56944 24.8463 9.56944C24.9607 9.56944 25.0752 9.24914 25.0752 8.88309C25.0752 8.37976 25.1896 8.19673 25.4872 8.19673C25.8306 8.19673 25.8763 8.35688 25.8306 9.04324L25.7848 9.91262L26.0366 9.15763C26.357 8.19673 27.0208 8.15097 26.8377 9.11187C26.7462 9.50081 26.7919 9.79823 26.9064 9.79823C27.0437 9.79823 27.1353 9.59232 27.1353 9.34066C27.1353 8.90596 27.7075 8.47127 27.9364 8.70006C28.0051 8.76869 27.9135 9.2949 27.7304 9.86686C27.5473 10.4617 27.4786 10.9422 27.5931 10.9422C27.6847 10.9422 27.8907 10.4846 28.0509 9.91262C28.3485 8.86021 28.44 8.76869 28.8978 9.06612C29.0809 9.18051 29.1038 9.36354 28.9665 9.56944C28.8291 9.75247 28.7376 10.0728 28.7605 10.2558C28.7605 10.4388 28.9207 10.3016 29.1038 9.95838C29.2869 9.59232 29.5845 9.36354 29.7219 9.40929C30.0194 9.52369 30.0194 9.59232 29.7905 10.4846C29.6303 11.0337 29.6532 11.0337 29.9736 10.6219C30.1568 10.3931 30.3628 10.0728 30.4086 9.9355C30.4772 9.75247 30.5917 9.75247 30.7977 9.9355C31.0037 10.1414 31.0037 10.3244 30.7977 10.7134C30.6603 10.9879 30.5917 11.2625 30.6603 11.3311C30.729 11.3997 30.9121 11.1938 31.0495 10.8506C31.5302 9.79823 32.0109 10.3473 31.5988 11.5141C31.4615 11.9031 31.5073 11.8802 31.8964 11.4226C32.194 11.0566 32.4687 10.9193 32.7433 11.0108C33.0867 11.1481 33.0409 11.2853 32.4 12.0861C31.988 12.6123 31.7133 13.0699 31.782 13.1385C31.8506 13.2071 32.1711 12.8868 32.5144 12.4521C33.4071 11.2853 34.2312 11.3311 33.4071 12.4979C33.2011 12.7953 33.0867 13.0927 33.1553 13.1614C33.224 13.2071 33.4529 13.0012 33.6589 12.6809C33.9794 12.2005 34.1167 12.1318 34.3914 12.3377C34.6432 12.5665 34.6203 12.7038 34.2083 13.1614C33.6132 13.7562 33.8649 13.8935 34.5059 13.2986C35.1239 12.7496 35.6275 13.2529 35.0781 13.8706C34.5059 14.5112 34.6203 14.7629 35.2154 14.1909C35.6275 13.802 35.8106 13.7562 36.0166 13.9621C36.2226 14.168 36.1539 14.3511 35.6732 14.7629C35.307 15.0374 35.1468 15.2662 35.2841 15.2891C35.4215 15.2891 35.6732 15.1289 35.8335 14.9459C35.9937 14.7629 36.2684 14.6027 36.4286 14.6027C37.0009 14.6027 36.7491 15.2204 35.925 15.861C35.4901 16.2042 35.1697 16.5245 35.2383 16.5932C35.307 16.6618 35.7648 16.3873 36.2913 15.9754C37.0466 15.3806 37.2298 15.312 37.3442 15.6094C37.4358 15.8382 37.2755 16.1585 36.9551 16.4559C36.4744 16.8677 36.4744 16.9135 36.8635 16.7762C38.0309 16.3644 38.5803 16.8448 37.5273 17.3253C37.184 17.4625 36.978 17.6456 37.0466 17.7142C37.1153 17.7828 37.39 17.7142 37.6647 17.5769C38.0538 17.371 38.2369 17.371 38.4429 17.5769C38.626 17.7828 38.626 17.8972 38.4429 17.9659C38.3056 18.0116 37.9851 18.2175 37.7562 18.4006C37.3442 18.7209 37.3442 18.7437 37.8936 18.5836C38.7863 18.3548 38.8549 18.3548 38.9694 18.6522C39.0152 18.7895 38.7863 19.0869 38.42 19.27C38.0767 19.453 37.9394 19.6131 38.1225 19.6131C38.3056 19.636 38.6261 19.5445 38.8092 19.4072C39.0152 19.27 39.1983 19.2928 39.3127 19.4759C39.6103 19.9334 39.5188 20.0249 38.4658 20.3224C37.8936 20.4825 37.4358 20.6884 37.4358 20.8028C37.4358 20.8943 37.8936 20.8257 38.4887 20.6198C39.061 20.4368 39.5874 20.3224 39.6561 20.391C39.9079 20.6655 39.4959 21.2375 39.0381 21.2375C38.7863 21.2375 38.5803 21.329 38.5803 21.4663C38.5803 21.5807 38.8778 21.6264 39.267 21.5349C40.2283 21.3519 40.1826 22.0154 39.2212 22.3357L38.4658 22.6102L39.3356 22.4958C40.0452 22.4272 40.1826 22.473 40.1826 22.8619C40.1826 23.1822 40.0223 23.2966 39.4959 23.2966C39.1296 23.2966 38.8092 23.411 38.8092 23.5254C38.8092 23.6855 39.1067 23.7084 39.6332 23.6169C40.3657 23.4796 40.4572 23.5254 40.3657 23.8914C40.3199 24.1431 40.0223 24.3719 39.6103 24.4634L38.9236 24.6235L39.679 24.6464C40.1597 24.6693 40.4115 24.7837 40.4115 25.0125C40.4115 25.2641 40.1368 25.3556 39.2441 25.3556C38.5345 25.3556 38.1454 25.4472 38.2369 25.5844C38.3056 25.6988 38.8321 25.8132 39.4043 25.8132C40.1368 25.8132 40.4115 25.9047 40.4115 26.1564C40.4115 26.3852 40.1597 26.4996 39.679 26.5225L38.9236 26.5453L39.6103 26.7055C40.0223 26.797 40.3199 27.0258 40.3657 27.2774C40.4572 27.6435 40.3657 27.6893 39.6332 27.552C39.1067 27.4605 38.8092 27.4834 38.8092 27.6435C38.8092 27.7579 39.1296 27.8723 39.4959 27.8723C40.0223 27.8723 40.1826 27.9867 40.1826 28.307C40.1826 28.6959 40.0452 28.7417 39.3356 28.673L38.4658 28.5586L39.2212 28.8332C40.1826 29.1535 40.2283 29.817 39.267 29.6111C38.8778 29.5424 38.5803 29.5882 38.5803 29.7026C38.5803 29.8398 38.7863 29.9314 39.0381 29.9314C39.473 29.9314 39.9079 30.5033 39.679 30.7321C39.6103 30.8007 39.0838 30.7092 38.5116 30.5262C37.9165 30.3432 37.4358 30.2745 37.4358 30.3889C37.4358 30.4804 37.8936 30.6864 38.4658 30.8465C39.5188 31.1439 39.6103 31.2354 39.3127 31.693C39.1983 31.876 39.0152 31.8989 38.8092 31.7616C38.6261 31.6244 38.3056 31.5329 38.1225 31.5557C37.9394 31.5557 38.0767 31.7159 38.42 31.8989C38.7863 32.0819 39.0152 32.3794 38.9694 32.5166C38.8549 32.8141 38.7863 32.8141 37.8936 32.5853C37.3442 32.4251 37.3442 32.448 37.7562 32.7683C37.9851 32.9513 38.3056 33.1572 38.4429 33.203C38.626 33.2716 38.626 33.386 38.4429 33.5919C38.2369 33.7978 38.0538 33.7978 37.6647 33.5919C37.39 33.4547 37.1153 33.386 37.0466 33.4547C36.978 33.5233 37.184 33.7063 37.5273 33.8436C38.5803 34.324 38.0309 34.8045 36.8635 34.3927C36.4744 34.2554 36.4973 34.3012 36.9551 34.6901C37.3213 34.9875 37.4587 35.2621 37.3671 35.5366C37.2298 35.8798 37.0924 35.834 36.2913 35.1934C35.7648 34.7816 35.307 34.5071 35.2383 34.5757C35.1697 34.6443 35.4901 34.9646 35.925 35.3078C37.0924 36.2001 37.0466 37.0237 35.8793 36.2001C35.5817 35.9942 35.2841 35.8798 35.2154 35.9484C35.1697 36.0171 35.3757 36.2458 35.6961 36.4518C36.1768 36.7721 36.2455 36.9093 36.0395 37.1839C35.8106 37.4355 35.6732 37.4127 35.2154 37.0008C34.6203 36.406 34.483 36.6577 35.0781 37.2983C35.6275 37.916 35.1239 38.4193 34.5059 37.8702C33.8649 37.2754 33.6132 37.4127 34.2083 38.0075C34.6203 38.4651 34.6432 38.6023 34.3914 38.8311C34.1167 39.037 33.9794 38.9684 33.6589 38.4879C33.4529 38.1676 33.224 37.9617 33.1553 38.0075C33.0867 38.0761 33.2011 38.3736 33.4071 38.671C34.2312 39.8378 33.4071 39.8835 32.5144 38.7167C32.1711 38.282 31.8506 37.9617 31.782 38.0304C31.7133 38.099 31.988 38.5566 32.4 39.0828C33.0409 39.8835 33.0867 40.0208 32.7433 40.1581C32.4687 40.2496 32.194 40.1123 31.8964 39.7463C31.5073 39.2887 31.4615 39.2658 31.5988 39.6548C32.0109 40.8216 31.5302 41.3706 31.0495 40.3182C30.9121 39.9751 30.729 39.7691 30.6603 39.8378C30.5917 39.9064 30.6603 40.181 30.7977 40.4555C31.0037 40.8444 31.0037 41.0275 30.7977 41.2334C30.5917 41.4164 30.4772 41.4164 30.4086 41.2334C30.3628 41.0961 30.1568 40.7758 29.9736 40.547C29.6532 40.1352 29.6303 40.1352 29.7905 40.6843C30.0194 41.5765 30.0194 41.6452 29.7219 41.7596C29.5845 41.8053 29.2869 41.5765 29.1038 41.2105C28.9207 40.8673 28.7605 40.73 28.7605 40.9131C28.7376 41.0961 28.8291 41.4164 28.9665 41.5994C29.1038 41.8053 29.0809 41.9884 28.8978 42.1028C28.44 42.4002 28.3485 42.3087 28.0509 41.2563C27.8907 40.6843 27.6847 40.2267 27.5931 40.2267C27.4786 40.2267 27.5473 40.7072 27.7304 41.302C27.9135 41.874 28.0051 42.4002 27.9364 42.4688C27.7075 42.6976 27.1353 42.2629 27.1353 41.8282C27.1353 41.5765 27.0437 41.3706 26.9064 41.3706C26.7919 41.3706 26.7462 41.6681 26.8377 42.057C27.0208 43.0179 26.357 42.9721 26.0366 41.9884L25.7848 41.2563L25.8306 42.1028C25.8763 42.812 25.8306 42.9721 25.4872 42.9721C25.1896 42.9721 25.0752 42.7891 25.0752 42.2858C25.0752 41.8969 24.9607 41.5994 24.8463 41.5994C24.6861 41.5994 24.6632 41.8968 24.7547 42.4231C24.8921 43.1552 24.8463 43.2467 24.4801 43.1552C24.2283 43.1094 23.9994 42.812 23.9078 42.4002L23.7476 41.7138L23.7247 42.4459C23.7018 42.9493 23.5873 43.2009 23.3584 43.2009C23.1067 43.2009 23.0151 42.9264 23.0151 42.1943C23.0151 41.6223 22.9235 41.0961 22.7862 41.0275C22.6489 40.936 22.5573 41.3249 22.5573 42.0341C22.5573 42.9264 22.4657 43.2009 22.214 43.2009C21.9851 43.2009 21.8706 42.9493 21.8477 42.4459L21.8248 41.7138L21.6646 42.4002C21.573 42.812 21.3441 43.1094 21.0923 43.1552C20.7261 43.2467 20.6803 43.1552 20.8177 42.4231C20.9092 41.8968 20.8863 41.5994 20.7261 41.5994C20.6117 41.5994 20.4972 41.8969 20.4972 42.2858C20.4972 42.812 20.3828 42.9721 20.0623 42.9721C19.6732 42.9721 19.6274 42.8349 19.6961 42.1028L19.8105 41.2563L19.5358 41.9884C19.2154 42.9721 18.5516 43.0179 18.7576 42.057C18.8262 41.6681 18.7805 41.3706 18.666 41.3706C18.5287 41.3706 18.4371 41.5765 18.4371 41.8282C18.4371 42.2858 17.8649 42.6976 17.5902 42.4459C17.5215 42.3773 17.636 41.8511 17.8191 41.2791C18.0251 40.6843 18.0938 40.2267 18.0022 40.2267C17.8877 40.2267 17.6817 40.6843 17.5215 41.2563C17.2239 42.3087 17.1324 42.4002 16.6746 42.1028C16.4915 41.9884 16.4686 41.8053 16.6059 41.5994C16.7433 41.4164 16.8348 41.0961 16.8119 40.9131C16.8119 40.73 16.6517 40.8673 16.4686 41.2105C16.2855 41.5765 15.9879 41.8053 15.8505 41.7596C15.553 41.6452 15.553 41.5765 15.7819 40.6843C15.9421 40.1352 15.9192 40.1352 15.5988 40.547C15.4156 40.7758 15.2096 41.0961 15.1638 41.2334C15.0952 41.4164 14.9807 41.4164 14.7747 41.2334C14.5687 41.0275 14.5687 40.8444 14.7747 40.4555C14.9121 40.181 14.9807 39.9064 14.9121 39.8378C14.8434 39.7691 14.6603 39.9751 14.5229 40.3182C14.0422 41.3706 13.5615 40.8216 13.9736 39.6548C14.1109 39.2658 14.0651 39.2658 13.6531 39.7463C13.3555 40.0666 13.0351 40.2267 12.8062 40.1352C12.5086 40.0208 12.5773 39.8378 13.1724 39.0828C13.5844 38.5566 13.8591 38.099 13.7904 38.0304C13.7218 37.9617 13.4013 38.282 13.058 38.7167C12.4171 39.5404 11.799 39.792 11.799 39.2201C11.799 39.0599 11.9593 38.7854 12.1424 38.6252C12.3255 38.4651 12.4857 38.2134 12.4857 38.0761C12.4628 37.9389 12.2339 38.099 11.9593 38.4651C11.5472 38.9455 11.3641 39.0141 11.1581 38.8082C10.9521 38.6023 10.9979 38.4193 11.387 38.0075C11.9593 37.4127 11.7075 37.2983 11.0665 37.8702C10.4485 38.4193 9.94493 37.916 10.4943 37.2983C11.0894 36.6577 10.9521 36.406 10.357 37.0008C9.89915 37.4127 9.76182 37.4355 9.53292 37.1839C9.32691 36.9093 9.39558 36.7721 9.87626 36.4518C10.1967 36.2458 10.4027 36.0171 10.357 35.9484C10.2883 35.8798 9.99071 35.9942 9.69314 36.2001C8.52576 37.0237 8.47998 36.2001 9.64736 35.3078C10.0823 34.9646 10.4027 34.6443 10.3341 34.5757C10.2654 34.5071 9.8076 34.7816 9.28113 35.1934C8.47998 35.834 8.34264 35.8798 8.2053 35.5366C8.11374 35.2621 8.25108 34.9875 8.61732 34.6901C9.07512 34.3012 9.09801 34.2554 8.70888 34.3927C7.54149 34.8045 6.99213 34.324 8.04507 33.8436C8.38842 33.7063 8.59443 33.5233 8.52576 33.4547C8.45709 33.386 8.18241 33.4547 7.90773 33.5919C7.5186 33.7978 7.33548 33.7978 7.12947 33.5919C6.94635 33.386 6.94635 33.2716 7.12947 33.203C7.26681 33.1572 7.58727 32.9513 7.81617 32.7683C8.22819 32.448 8.22819 32.4251 7.67883 32.5853C6.78612 32.8141 6.71745 32.8141 6.603 32.5166C6.55722 32.3794 6.78612 32.0819 7.15236 31.8989C7.49571 31.7159 7.63305 31.5557 7.44993 31.5557C7.26681 31.5329 6.94635 31.6244 6.76323 31.7616C6.55722 31.8989 6.3741 31.876 6.25965 31.693C5.96208 31.2354 6.05364 31.1439 7.10658 30.8465C7.67883 30.6864 8.13663 30.4804 8.13663 30.3889C8.13663 30.2745 7.65594 30.3432 7.0608 30.5262C6.48855 30.7092 5.96208 30.8007 5.89341 30.7321C5.66451 30.5033 6.09942 29.9314 6.53433 29.9314C6.78612 29.9314 6.99213 29.8398 6.99213 29.7026C6.99213 29.5882 6.69456 29.5424 6.30543 29.6111C5.34405 29.817 5.38983 29.1535 6.3741 28.8332L7.10658 28.5815L6.25965 28.6273C5.55006 28.673 5.38983 28.6273 5.38983 28.2841C5.38983 27.9867 5.57295 27.8723 6.07653 27.8723C6.46566 27.8723 6.76323 27.7579 6.76323 27.6435C6.76323 27.4834 6.46566 27.4605 5.93919 27.552C5.20671 27.6893 5.11515 27.6435 5.20671 27.2774C5.25249 27.0258 5.55006 26.797 5.96208 26.7055L6.64878 26.5453L5.9163 26.5225C5.41272 26.4996 5.16093 26.3852 5.16093 26.1564C5.16093 25.9047 5.43561 25.8132 6.19098 25.8132C6.76323 25.8132 7.22103 25.6988 7.22103 25.5844C7.22103 25.4472 6.76323 25.3556 6.19098 25.3556C5.43561 25.3556 5.16093 25.2641 5.16093 25.0125C5.16093 24.7837 5.41272 24.6693 5.9163 24.6464L6.64878 24.6235L5.96208 24.4634C5.55006 24.3719 5.25249 24.1431 5.20671 23.8914C5.11515 23.5254 5.20671 23.4796 5.93919 23.6169C6.46566 23.7084 6.76323 23.6855 6.76323 23.5254C6.76323 23.411 6.46566 23.2966 6.07653 23.2966C5.57295 23.2966 5.38983 23.1822 5.38983 22.8848C5.38983 22.5416 5.55006 22.4958 6.25965 22.5416L7.10658 22.5873L6.3741 22.3357C5.38983 22.0154 5.34405 21.3519 6.30543 21.5349C6.69456 21.6264 6.99213 21.5807 6.99213 21.4663C6.99213 21.329 6.78612 21.2375 6.53433 21.2375C6.09942 21.2375 5.66451 20.6655 5.89341 20.4368C5.96208 20.3681 6.48855 20.4596 7.0608 20.6427C7.65594 20.8257 8.13663 20.8943 8.13663 20.7799C8.13663 20.6884 7.67883 20.4825 7.10658 20.3224C6.05364 20.0249 5.96208 19.9334 6.25965 19.4759C6.3741 19.2928 6.55722 19.27 6.76323 19.4072C6.94635 19.5445 7.26681 19.636 7.44993 19.6131C7.63305 19.6131 7.49571 19.453 7.15236 19.27C6.78612 19.0869 6.55722 18.7895 6.603 18.6522C6.71745 18.3548 6.78612 18.3548 7.67883 18.5836C8.22819 18.7437 8.22819 18.7209 7.81617 18.4006C7.58727 18.2175 7.26681 18.0116 7.12947 17.9659C6.94635 17.8972 6.94635 17.7828 7.12947 17.5769C7.33548 17.371 7.5186 17.371 7.90773 17.5769C8.18241 17.7142 8.45709 17.7828 8.52576 17.7142C8.59443 17.6456 8.38842 17.4625 8.04507 17.3253C6.99213 16.8448 7.54149 16.3644 8.70888 16.7762C9.09801 16.9135 9.07512 16.8677 8.61732 16.4788C8.25108 16.1813 8.11374 15.9068 8.2053 15.6323C8.34264 15.2891 8.47998 15.3348 9.28113 15.9754C9.8076 16.3873 10.2654 16.6618 10.3341 16.5932C10.4027 16.5245 10.0823 16.2042 9.64736 15.861C8.47998 14.9688 8.52576 14.1452 9.69314 14.9688C9.99071 15.1747 10.2883 15.2891 10.357 15.2204C10.4027 15.1518 10.1967 14.923 9.87626 14.7171C9.39558 14.3968 9.32691 14.2595 9.53292 13.985C9.76182 13.7333 9.89915 13.7562 10.357 14.168C10.9521 14.7629 11.0894 14.5112 10.4943 13.8706C9.94493 13.2529 10.4485 12.7496 11.0665 13.2986C11.7075 13.8706 11.9593 13.7562 11.387 13.1614C10.9979 12.7496 10.9521 12.5665 11.1581 12.3606C11.3641 12.1547 11.5472 12.2234 11.9593 12.7038C12.2339 13.0699 12.4628 13.23 12.4857 13.0927C12.4857 12.9555 12.3255 12.7038 12.1424 12.5437C11.9593 12.3835 11.799 12.109 11.799 11.9488C11.799 11.3768 12.4171 11.6285 13.058 12.4521C13.4013 12.8868 13.7218 13.2071 13.7904 13.1385C13.8591 13.0699 13.5844 12.6123 13.1724 12.0861C12.5315 11.2853 12.4857 11.1481 12.8291 11.0108C13.1037 10.9193 13.3784 11.0566 13.676 11.4226C14.0651 11.8802 14.1109 11.9031 13.9736 11.5141C13.5615 10.3473 14.0422 9.79823 14.5229 10.8506C14.6603 11.1938 14.8434 11.3997 14.9121 11.3311C14.9807 11.2625 14.9121 10.9879 14.7747 10.7134C14.5687 10.3244 14.5687 10.1414 14.7747 9.9355C14.9807 9.75247 15.0952 9.75247 15.1638 9.9355C15.2096 10.0728 15.4156 10.3931 15.5988 10.6219C15.9192 11.0337 15.9421 11.0337 15.7819 10.4846C15.553 9.59232 15.553 9.52369 15.8505 9.40929C15.9879 9.36354 16.2855 9.59232 16.4686 9.95838C16.6517 10.3016 16.8119 10.4388 16.8119 10.2558C16.8348 10.0728 16.7433 9.75247 16.6059 9.56944C16.4686 9.36354 16.4915 9.18051 16.6746 9.06612C17.1324 8.76869 17.2239 8.86021 17.5215 9.91262C17.6817 10.4846 17.8877 10.9422 18.0022 10.9422C18.0938 10.9422 18.0251 10.4846 17.8191 9.88974C17.636 9.31778 17.5215 8.79157 17.5902 8.72294C17.8649 8.47127 18.4371 8.88309 18.4371 9.34066C18.4371 9.59232 18.5287 9.79823 18.666 9.79823C18.7805 9.79823 18.8262 9.50081 18.7576 9.11187C18.5516 8.15097 19.2154 8.19673 19.5358 9.15763L19.8105 9.91262L19.6961 9.04324C19.6274 8.334 19.6732 8.19673 20.0623 8.19673C20.3828 8.19673 20.4972 8.35688 20.4972 8.88309C20.4972 9.24914 20.6117 9.56944 20.7261 9.56944C20.8863 9.56944 20.9092 9.27202 20.8177 8.74582C20.6803 8.0137 20.7261 7.92219 21.0923 8.0137C21.3441 8.05946 21.573 8.35688 21.6646 8.76869Z" fill="white"/>
<path d="M20.4972 13.2529C18.5058 13.5732 15.5759 15.1289 13.9507 16.7533C11.181 19.5216 9.85337 23.5254 10.4027 27.3461C11.1581 32.6997 15.6216 37.161 20.9321 37.9617C29.1496 39.1972 36.4057 31.9447 35.1697 23.7313C34.5745 19.7504 31.9422 16.2042 28.2798 14.4197C25.6017 13.1156 23.4271 12.7953 20.4972 13.2529ZM26.3341 18.0345C27.7991 18.7437 29.6303 20.574 30.3399 22.0383C30.8435 23.022 30.9121 23.5025 30.9121 25.5844C30.9121 28.4671 30.4772 29.5882 28.6231 31.4185C26.7919 33.2716 25.6703 33.7063 22.7862 33.7063C19.9021 33.7063 18.7805 33.2716 16.9493 31.4185C15.347 29.8398 14.7289 28.4443 14.5916 26.1106C14.3856 22.267 16.2855 19.27 19.8792 17.7371C21.3212 17.1422 24.7776 17.3024 26.3341 18.0345Z" fill="white"/>
<path d="M20.2454 18.1031C18.2998 18.8352 16.6517 20.2995 15.6445 22.1984C15.1867 23.0449 15.1181 23.5254 15.1181 25.5844C15.1181 27.8036 15.1638 28.0782 15.7819 29.1992C16.5601 30.5948 17.9564 31.9447 19.3985 32.7225C20.2454 33.1801 20.7032 33.2487 22.7862 33.2487C25.0294 33.2487 25.2812 33.203 26.4028 32.5624C28.028 31.6701 29.5159 30 30.111 28.3756C30.7748 26.6368 30.6832 23.6855 29.905 22.1984C29.1725 20.757 27.7991 19.3615 26.4028 18.6065C25.3728 18.0345 24.8921 17.9201 23.1296 17.8743C21.8019 17.8286 20.7719 17.9201 20.2454 18.1031ZM21.9393 18.4234C21.779 18.4692 21.5044 18.4692 21.367 18.4234C21.2068 18.3548 21.3212 18.309 21.6417 18.309C21.9622 18.309 22.0766 18.3548 21.9393 18.4234ZM24.2283 18.4234C24.068 18.4692 23.7934 18.4692 23.656 18.4234C23.4958 18.3548 23.6102 18.309 23.9307 18.309C24.2512 18.309 24.3656 18.3548 24.2283 18.4234ZM20.6117 18.7209C19.9936 18.9954 19.6274 18.9954 20.0394 18.7209C20.2225 18.6065 20.543 18.5149 20.7261 18.5149C20.955 18.5149 20.9092 18.5836 20.6117 18.7209ZM18.5058 19.7733C18.0938 20.0707 17.4528 20.7342 17.0408 21.1917C16.6517 21.6493 16.4457 21.8323 16.5601 21.5578C16.8348 21.0545 18.7805 19.1784 19.0551 19.1784C19.1696 19.1784 18.9178 19.453 18.5058 19.7733ZM27.7304 20.1393C28.3027 20.6655 28.8749 21.3061 29.0123 21.5578C29.1267 21.8323 28.9207 21.6493 28.5316 21.1917C28.1196 20.7342 27.4786 20.0707 27.0666 19.7733C26.6546 19.453 26.4028 19.1784 26.5173 19.1784C26.6088 19.1784 27.1582 19.6131 27.7304 20.1393ZM29.8592 23.5254C29.8592 23.7541 29.7905 23.7084 29.6532 23.411C29.3785 22.7932 29.3785 22.4272 29.6532 22.839C29.7676 23.022 29.8592 23.3423 29.8592 23.5254ZM15.6216 24.715C15.553 24.8752 15.5072 24.7608 15.5072 24.4405C15.5072 24.1202 15.553 24.0058 15.6216 24.1431C15.6674 24.3032 15.6674 24.5778 15.6216 24.715ZM30.0423 24.715C29.9736 24.8752 29.9279 24.7608 29.9279 24.4405C29.9279 24.1202 29.9736 24.0058 30.0423 24.1431C30.0881 24.3032 30.0881 24.5778 30.0423 24.715ZM15.6216 27.0029C15.553 27.163 15.5072 27.0487 15.5072 26.7283C15.5072 26.4081 15.553 26.2937 15.6216 26.4309C15.6674 26.5911 15.6674 26.8656 15.6216 27.0029ZM30.0423 27.0029C29.9736 27.163 29.9279 27.0487 29.9279 26.7283C29.9279 26.4081 29.9736 26.2937 30.0423 26.4309C30.0881 26.5911 30.0881 26.8656 30.0423 27.0029ZM29.6532 28.2612C29.4014 28.6501 29.4014 28.6501 29.5158 28.2612C29.5845 28.0324 29.6532 27.7121 29.6761 27.5749C29.6761 27.3689 29.7219 27.3689 29.7905 27.5749C29.8592 27.735 29.7905 28.0324 29.6532 28.2612ZM18.3913 31.3269C18.8491 31.7159 19.0322 31.9218 18.7576 31.8074C18.254 31.5328 16.377 29.5882 16.377 29.3136C16.377 29.1992 16.6517 29.4509 16.9722 29.8627C17.2697 30.2745 17.9335 30.9151 18.3913 31.3269ZM29.1954 29.3594C29.1954 29.5653 27.2955 31.5557 26.8835 31.7845C26.6546 31.8989 27.0666 31.3727 27.7762 30.6406C29.1725 29.1992 29.1954 29.1764 29.1954 29.3594ZM20.6117 32.448C20.9092 32.5853 20.955 32.6539 20.7261 32.6539C20.543 32.6539 20.2225 32.5624 20.0394 32.448C19.6274 32.1734 19.9936 32.1734 20.6117 32.448ZM25.533 32.448C25.3499 32.5624 25.0294 32.6539 24.8463 32.6539C24.6174 32.6539 24.6632 32.5853 24.9607 32.448C25.5788 32.1734 25.945 32.1734 25.533 32.448ZM21.9393 32.8369C21.779 32.8827 21.5044 32.8827 21.367 32.8369C21.2068 32.7683 21.3212 32.7225 21.6417 32.7225C21.9622 32.7225 22.0766 32.7683 21.9393 32.8369ZM24.2283 32.8369C24.068 32.8827 23.7934 32.8827 23.656 32.8369C23.4958 32.7683 23.6102 32.7225 23.9307 32.7225C24.2512 32.7225 24.3656 32.7683 24.2283 32.8369Z" fill="white"/>
</svg>
