<svg width="65" height="65" viewBox="0 0 65 65" fill="none" xmlns="http://www.w3.org/2000/svg">
<path d="M35.5469 60.9375H26.4062C26.1369 60.9375 25.8786 60.8305 25.6881 60.64C25.4976 60.4496 25.3906 60.1912 25.3906 59.9219V39.6094C25.3906 39.34 25.4976 39.0817 25.6881 38.8912C25.8786 38.7008 26.1369 38.5938 26.4062 38.5938H35.5469C35.8162 38.5938 36.0746 38.7008 36.265 38.8912C36.4555 39.0817 36.5625 39.34 36.5625 39.6094V59.9219C36.5625 60.1912 36.4555 60.4496 36.265 60.64C36.0746 60.8305 35.8162 60.9375 35.5469 60.9375ZM27.4219 58.9062H34.5312V40.625H27.4219V58.9062Z" fill="#B6AC9E"/>
<path d="M41.6406 60.9374H35.5469C35.2775 60.9374 35.0192 60.8304 34.8287 60.64C34.6383 60.4495 34.5313 60.1912 34.5313 59.9218V31.4843C34.5309 31.2912 34.5857 31.1019 34.6891 30.9388C34.7926 30.7757 34.9404 30.6454 35.1152 30.5633C35.2901 30.4812 35.4847 30.4507 35.6763 30.4753C35.8679 30.4999 36.0485 30.5787 36.1969 30.7023L42.2906 35.7804C42.4053 35.8759 42.4975 35.9955 42.5607 36.1306C42.6239 36.2658 42.6565 36.4132 42.6563 36.5624V59.9218C42.6563 60.1912 42.5492 60.4495 42.3588 60.64C42.1683 60.8304 41.91 60.9374 41.6406 60.9374ZM36.5625 58.9062H40.625V37.0398L36.5625 33.6578V58.9062Z" fill="#B6AC9E"/>
<path d="M29.4531 44.6875C29.3204 44.6859 29.1893 44.6583 29.0672 44.6062L28.8844 44.5148L28.732 44.393C28.6423 44.2942 28.5702 44.1809 28.5187 44.0578C28.465 43.9362 28.4373 43.8048 28.4373 43.6719C28.4373 43.5389 28.465 43.4075 28.5187 43.2859C28.5702 43.1628 28.6423 43.0495 28.732 42.9508L28.8844 42.8289L29.0672 42.7375C29.2521 42.6597 29.456 42.6385 29.653 42.6764C29.85 42.7144 30.0314 42.8098 30.1742 42.9508C30.2639 43.0495 30.3361 43.1628 30.3875 43.2859C30.4412 43.4075 30.469 43.5389 30.469 43.6719C30.469 43.8048 30.4412 43.9362 30.3875 44.0578C30.3361 44.1809 30.2639 44.2942 30.1742 44.393C29.9796 44.5785 29.722 44.6837 29.4531 44.6875Z" fill="#B6AC9E"/>
<path d="M38.5936 39.6094C38.3247 39.6057 38.0671 39.5005 37.8725 39.3149C37.8265 39.2649 37.7857 39.2105 37.7506 39.1524C37.7104 39.1005 37.6795 39.0421 37.6592 38.9797C37.6229 38.9233 37.5954 38.8617 37.578 38.7969C37.573 38.7293 37.573 38.6614 37.578 38.5938C37.5745 38.4606 37.6024 38.3284 37.6592 38.2078C37.7106 38.0848 37.7828 37.9714 37.8725 37.8727C37.9669 37.7775 38.0792 37.7019 38.203 37.6504C38.3268 37.5988 38.4595 37.5723 38.5936 37.5723C38.7277 37.5723 38.8604 37.5988 38.9842 37.6504C39.1079 37.7019 39.2203 37.7775 39.3147 37.8727C39.4044 37.9714 39.4765 38.0848 39.528 38.2078C39.58 38.3299 39.6076 38.4611 39.6092 38.5938C39.6092 38.8631 39.5022 39.1215 39.3117 39.3119C39.1213 39.5024 38.8629 39.6094 38.5936 39.6094Z" fill="#B6AC9E"/>
<path d="M38.5938 47.7343C38.3921 47.7355 38.1946 47.6766 38.0265 47.5651C37.8583 47.4536 37.7273 47.2945 37.6499 47.1082C37.5725 46.9219 37.5524 46.7167 37.5921 46.519C37.6318 46.3212 37.7295 46.1397 37.8727 45.9976C37.99 45.8753 38.136 45.7843 38.2974 45.7329C38.4588 45.6814 38.6305 45.6712 38.7969 45.7031C38.8605 45.7142 38.9222 45.7347 38.9797 45.764L39.1625 45.8554L39.3149 45.9773C39.4101 46.0717 39.4856 46.1841 39.5372 46.3078C39.5888 46.4316 39.6153 46.5643 39.6153 46.6984C39.6153 46.8325 39.5888 46.9652 39.5372 47.089C39.4856 47.2128 39.4101 47.3251 39.3149 47.4195L39.1625 47.5414L38.9797 47.6328C38.9222 47.6621 38.8605 47.6826 38.7969 47.6937L38.5938 47.7343Z" fill="#B6AC9E"/>
<path d="M44.6874 50.7812C44.4185 50.7775 44.161 50.6723 43.9663 50.4867C43.8748 50.3874 43.7994 50.2743 43.7429 50.1515C43.6943 50.0287 43.6702 49.8977 43.6718 49.7656C43.6618 49.6983 43.6618 49.6298 43.6718 49.5625C43.6673 49.5016 43.6673 49.4405 43.6718 49.3797C43.7018 49.3166 43.7357 49.2556 43.7734 49.1969C43.8109 49.1437 43.8516 49.0928 43.8953 49.0445C44.0193 48.9105 44.1773 48.8123 44.3524 48.7605C44.5276 48.7087 44.7135 48.705 44.8906 48.75C44.9542 48.7611 45.0158 48.7816 45.0734 48.8109L45.2562 48.9023L45.4085 49.0242C45.5051 49.1215 45.581 49.2374 45.6316 49.3648C45.6823 49.4922 45.7066 49.6285 45.7031 49.7656C45.7015 49.8983 45.6739 50.0294 45.6218 50.1515C45.5735 50.2762 45.501 50.3901 45.4085 50.4867L45.2562 50.6086L45.0734 50.7C45.0158 50.7293 44.9542 50.7498 44.8906 50.7609L44.6874 50.7812Z" fill="#B6AC9E"/>
<path d="M50.7812 50.7813H50.5781C50.5145 50.7702 50.4529 50.7496 50.3953 50.7204L50.2125 50.6289L50.0601 50.5071C49.9704 50.4084 49.8983 50.295 49.8469 50.1719C49.7931 50.0503 49.7654 49.9189 49.7654 49.786C49.7654 49.6531 49.7931 49.5216 49.8469 49.4C49.8983 49.277 49.9704 49.1636 50.0601 49.0649L50.2125 48.943L50.3953 48.8516C50.4504 48.8081 50.5121 48.7738 50.5781 48.75C50.7084 48.7197 50.8439 48.7197 50.9742 48.75C51.0415 48.7595 51.1067 48.7801 51.1672 48.811C51.2296 48.8313 51.288 48.8622 51.3398 48.9024L51.5023 49.0243C51.592 49.123 51.6642 49.2363 51.7156 49.3594C51.7693 49.481 51.7971 49.6124 51.7971 49.7454C51.7971 49.8783 51.7693 50.0097 51.7156 50.1313C51.6642 50.2544 51.592 50.3677 51.5023 50.4664L51.3398 50.5883C51.288 50.6285 51.2296 50.6595 51.1672 50.6797C51.1067 50.7107 51.0415 50.7313 50.9742 50.7407L50.7812 50.7813Z" fill="#B6AC9E"/>
<path d="M53.828 50.7813H53.6248C53.5612 50.7701 53.4996 50.7496 53.442 50.7203L53.2592 50.6289L53.1069 50.507C52.9165 50.3073 52.8109 50.0416 52.8123 49.7656C52.8073 49.698 52.8073 49.6301 52.8123 49.5625C52.8234 49.4989 52.844 49.4373 52.8733 49.3797C52.8955 49.315 52.9262 49.2535 52.9647 49.1969C53.0022 49.1437 53.0429 49.0928 53.0866 49.0445L53.2389 48.9227L53.4217 48.8313C53.4843 48.7929 53.553 48.7654 53.6248 48.75C53.7895 48.7156 53.9602 48.7226 54.1216 48.7705C54.2829 48.8183 54.4298 48.9055 54.5491 49.0242L54.6709 49.1766C54.7094 49.2332 54.7401 49.2947 54.7623 49.3594C54.7916 49.417 54.8122 49.4786 54.8233 49.5422C54.8283 49.6098 54.8283 49.6777 54.8233 49.7453C54.8233 50.0147 54.7163 50.273 54.5258 50.4635C54.3353 50.6539 54.077 50.7609 53.8076 50.7609L53.828 50.7813Z" fill="#B6AC9E"/>
<path d="M56.875 46.7188H56.6719C56.6082 46.7077 56.5466 46.6871 56.4891 46.6579L56.3062 46.5664L56.1539 46.4446C56.0642 46.3459 55.9921 46.2325 55.9406 46.1094C55.8869 45.9878 55.8591 45.8564 55.8591 45.7235C55.8591 45.5906 55.8869 45.4591 55.9406 45.3375C55.989 45.2129 56.0614 45.099 56.1539 45.0024L56.3062 44.8805L56.4891 44.7891C56.5441 44.7456 56.6058 44.7113 56.6719 44.6875C56.8022 44.6572 56.9377 44.6572 57.068 44.6875C57.1352 44.697 57.2005 44.7176 57.2609 44.7485C57.3233 44.7688 57.3817 44.7997 57.4336 44.8399L57.5961 44.9618C57.6885 45.0584 57.761 45.1722 57.8094 45.2969C57.8631 45.4185 57.8909 45.5499 57.8909 45.6829C57.8909 45.8158 57.8631 45.9472 57.8094 46.0688C57.761 46.1935 57.6885 46.3074 57.5961 46.4039C57.5461 46.4499 57.4917 46.4907 57.4336 46.5258C57.3817 46.566 57.3233 46.597 57.2609 46.6172C57.2005 46.6482 57.1352 46.6688 57.068 46.6782L56.875 46.7188Z" fill="#B6AC9E"/>
<path d="M44.6874 54.8437C44.418 54.8437 44.1597 54.7367 43.9692 54.5463C43.7787 54.3558 43.6717 54.0975 43.6717 53.8281C43.6622 53.7607 43.6622 53.6924 43.6717 53.625C43.6672 53.5641 43.6672 53.503 43.6717 53.4422C43.7335 53.3225 43.8084 53.2101 43.8952 53.107C44.0193 52.973 44.1772 52.8748 44.3524 52.823C44.5275 52.7712 44.7134 52.7675 44.8905 52.8125C44.9541 52.8236 45.0157 52.8441 45.0733 52.8734L45.2561 52.9648L45.4085 53.0867C45.5051 53.184 45.5809 53.2999 45.6316 53.4273C45.6822 53.5547 45.7065 53.691 45.703 53.8281C45.6992 54.097 45.594 54.3546 45.4085 54.5492L45.2561 54.6711L45.0733 54.7625C45.0157 54.7918 44.9541 54.8123 44.8905 54.8234L44.6874 54.8437Z" fill="#B6AC9E"/>
<path d="M47.7344 54.8438C47.6011 54.8472 47.469 54.8194 47.3484 54.7625C47.2238 54.7142 47.1099 54.6417 47.0133 54.5493C46.9236 54.4505 46.8514 54.3372 46.8 54.2141C46.7463 54.0925 46.7185 53.9611 46.7185 53.8282C46.7185 53.6952 46.7463 53.5638 46.8 53.4422C46.8514 53.3191 46.9236 53.2058 47.0133 53.1071C47.1099 53.0146 47.2238 52.9421 47.3484 52.8938C47.5323 52.8085 47.7374 52.7802 47.9375 52.8125C48.0011 52.8237 48.0627 52.8442 48.1203 52.8735L48.3031 52.9649L48.4555 53.0868C48.5479 53.1833 48.6204 53.2972 48.6687 53.4219C48.7225 53.5435 48.7502 53.6749 48.7502 53.8079C48.7502 53.9408 48.7225 54.0722 48.6687 54.1938C48.6173 54.3169 48.5452 54.4302 48.4555 54.5289L48.3031 54.6508L48.1203 54.7422C48.0627 54.7715 48.0011 54.792 47.9375 54.8032L47.7344 54.8438Z" fill="#B6AC9E"/>
<path d="M50.7811 54.8438H50.578C50.5143 54.8327 50.4527 54.8121 50.3951 54.7828L50.2123 54.6914L50.06 54.5696C50.014 54.5196 49.9732 54.4652 49.9381 54.4071C49.8979 54.3552 49.867 54.2968 49.8467 54.2344C49.8158 54.1739 49.7952 54.1087 49.7858 54.0414C49.7729 53.9711 49.7661 53.8997 49.7655 53.8282C49.7605 53.7605 49.7605 53.6926 49.7655 53.625C49.7766 53.5614 49.7971 53.4998 49.8264 53.4422C49.8486 53.3775 49.8794 53.316 49.9178 53.2594C49.9553 53.2062 49.996 53.1553 50.0397 53.1071C50.1341 53.0119 50.2464 52.9363 50.3702 52.8848C50.4939 52.8332 50.6267 52.8066 50.7608 52.8066C50.8948 52.8066 51.0276 52.8332 51.1514 52.8848C51.2751 52.9363 51.3874 53.0119 51.4819 53.1071C51.5797 53.2003 51.6579 53.3121 51.712 53.4359C51.766 53.5597 51.7948 53.6931 51.7967 53.8282C51.8017 53.8924 51.8017 53.9569 51.7967 54.0211C51.7873 54.0884 51.7667 54.1536 51.7358 54.2141C51.7155 54.2765 51.6846 54.3349 51.6444 54.3867L51.5225 54.5492L51.36 54.6711C51.3081 54.7113 51.2497 54.7422 51.1873 54.7625C51.1269 54.7935 51.0616 54.8141 50.9944 54.8235L50.7811 54.8438Z" fill="#B6AC9E"/>
<path d="M56.875 54.8438H56.6719C56.6082 54.8327 56.5466 54.8121 56.4891 54.7829L56.3062 54.6914L56.1539 54.5696C56.0614 54.473 55.989 54.3591 55.9406 54.2344C55.8869 54.1128 55.8591 53.9814 55.8591 53.8485C55.8591 53.7156 55.8869 53.5841 55.9406 53.4625C55.989 53.3379 56.0614 53.224 56.1539 53.1274L56.3062 53.0055L56.4891 52.9141C56.5441 52.8706 56.6058 52.8363 56.6719 52.8125C56.8022 52.7822 56.9377 52.7822 57.068 52.8125C57.1352 52.822 57.2005 52.8426 57.2609 52.8735C57.3233 52.8938 57.3817 52.9247 57.4336 52.9649C57.4917 53 57.5461 53.0408 57.5961 53.0868C57.6885 53.1834 57.761 53.2972 57.8094 53.4219C57.8631 53.5435 57.8909 53.6749 57.8909 53.8079C57.8909 53.9408 57.8631 54.0722 57.8094 54.1938C57.761 54.3185 57.6885 54.4324 57.5961 54.5289C57.5461 54.5749 57.4917 54.6157 57.4336 54.6508C57.3817 54.691 57.3233 54.722 57.2609 54.7422C57.2005 54.7732 57.1352 54.7938 57.068 54.8032L56.875 54.8438Z" fill="#B6AC9E"/>
<path d="M38.5938 51.7968C38.3921 51.798 38.1946 51.7391 38.0265 51.6276C37.8583 51.5161 37.7273 51.357 37.6499 51.1707C37.5725 50.9844 37.5524 50.7792 37.5921 50.5815C37.6318 50.3837 37.7295 50.2022 37.8727 50.0601C37.99 49.9378 38.136 49.8468 38.2974 49.7954C38.4588 49.7439 38.6305 49.7337 38.7969 49.7656C38.8605 49.7767 38.9222 49.7972 38.9797 49.8265L39.1625 49.9179L39.3149 50.0398C39.4101 50.1342 39.4856 50.2466 39.5372 50.3703C39.5888 50.4941 39.6153 50.6268 39.6153 50.7609C39.6153 50.895 39.5888 51.0277 39.5372 51.1515C39.4856 51.2753 39.4101 51.3876 39.3149 51.482L39.1625 51.6039L38.9797 51.6953C38.9222 51.7246 38.8605 51.7451 38.7969 51.7562L38.5938 51.7968Z" fill="#B6AC9E"/>
<path d="M38.5938 55.8593C38.4601 55.8601 38.3276 55.8345 38.2039 55.7839C38.0801 55.7334 37.9676 55.6589 37.8727 55.5648C37.783 55.4661 37.7108 55.3527 37.6594 55.2297C37.6026 55.1091 37.5747 54.9769 37.5782 54.8437C37.5819 54.5748 37.6871 54.3172 37.8727 54.1226C37.99 54.0003 38.1359 53.9093 38.2974 53.8579C38.4588 53.8064 38.6305 53.7962 38.7969 53.8281C38.8605 53.8392 38.9222 53.8597 38.9797 53.889L39.1625 53.9804L39.3149 54.1023C39.5053 54.302 39.6109 54.5678 39.6094 54.8437C39.6078 54.9764 39.5802 55.1076 39.5282 55.2297C39.4767 55.3527 39.4046 55.4661 39.3149 55.5648C39.1203 55.7504 38.8627 55.8556 38.5938 55.8593Z" fill="#B6AC9E"/>
<path d="M32.5 44.6875C32.2307 44.6875 31.9723 44.5805 31.7819 44.3901C31.5914 44.1996 31.4844 43.9413 31.4844 43.6719C31.481 43.5387 31.5088 43.4065 31.5657 43.286C31.6171 43.1629 31.6892 43.0495 31.7789 42.9508C31.8734 42.8556 31.9857 42.7801 32.1095 42.7285C32.2332 42.6769 32.366 42.6504 32.5 42.6504C32.6341 42.6504 32.7669 42.6769 32.8906 42.7285C33.0144 42.7801 33.1267 42.8556 33.2211 42.9508C33.3108 43.0495 33.383 43.1629 33.4344 43.286C33.4865 43.4081 33.5141 43.5392 33.5157 43.6719C33.5157 43.9413 33.4087 44.1996 33.2182 44.3901C33.0277 44.5805 32.7694 44.6875 32.5 44.6875Z" fill="#B6AC9E"/>
<path d="M29.4532 48.75C29.3204 48.7484 29.1893 48.7208 29.0672 48.6687L28.8844 48.5773L28.7321 48.4555C28.5465 48.2608 28.4413 48.0033 28.4375 47.7344C28.4341 47.6011 28.4619 47.469 28.5188 47.3484C28.5702 47.2253 28.6424 47.112 28.7321 47.0133L28.8844 46.8914L29.0672 46.8C29.2522 46.7222 29.456 46.701 29.6531 46.7389C29.8501 46.7769 30.0314 46.8723 30.1743 47.0133C30.264 47.112 30.3361 47.2253 30.3875 47.3484C30.4396 47.4705 30.4672 47.6016 30.4688 47.7344C30.4688 48.0037 30.3618 48.2621 30.1713 48.4525C29.9809 48.643 29.7225 48.75 29.4532 48.75Z" fill="#B6AC9E"/>
<path d="M29.4532 52.8125C29.3204 52.8109 29.1893 52.7833 29.0672 52.7312L28.8844 52.6398L28.7321 52.518C28.5465 52.3233 28.4413 52.0658 28.4375 51.7969C28.4341 51.6636 28.4619 51.5315 28.5188 51.4109C28.5702 51.2878 28.6424 51.1745 28.7321 51.0758L28.8844 50.9539L29.0672 50.8625C29.2522 50.7847 29.456 50.7635 29.6531 50.8014C29.8501 50.8394 30.0314 50.9348 30.1743 51.0758C30.264 51.1745 30.3361 51.2878 30.3875 51.4109C30.4396 51.533 30.4672 51.6641 30.4688 51.7969C30.4688 52.0662 30.3618 52.3246 30.1713 52.515C29.9809 52.7055 29.7225 52.8125 29.4532 52.8125Z" fill="#B6AC9E"/>
<path d="M32.4998 52.8125C32.2309 52.8088 31.9734 52.7036 31.7787 52.518C31.7351 52.4697 31.6944 52.4188 31.6569 52.3656C31.6184 52.309 31.5877 52.2475 31.5655 52.1828C31.5291 52.1264 31.5017 52.0648 31.4842 52C31.4792 51.9324 31.4792 51.8645 31.4842 51.7969C31.4842 51.5275 31.5912 51.2692 31.7817 51.0787C31.9721 50.8883 32.2305 50.7812 32.4998 50.7812C32.7692 50.7812 33.0275 50.8883 33.218 51.0787C33.4085 51.2692 33.5155 51.5275 33.5155 51.7969C33.5204 51.8645 33.5204 51.9324 33.5155 52C33.5043 52.0636 33.4838 52.1252 33.4545 52.1828C33.4323 52.2475 33.4015 52.309 33.3631 52.3656L33.2412 52.518C33.0415 52.7084 32.7758 52.8139 32.4998 52.8125Z" fill="#B6AC9E"/>
<path d="M29.4532 56.875C29.3204 56.8734 29.1893 56.8458 29.0672 56.7937L28.8844 56.7023L28.7321 56.5805C28.6369 56.486 28.5613 56.3737 28.5097 56.2499C28.4582 56.1262 28.4316 55.9934 28.4316 55.8594C28.4316 55.7253 28.4582 55.5925 28.5097 55.4688C28.5613 55.345 28.6369 55.2327 28.7321 55.1383L28.8844 55.0164L29.0672 54.925C29.2522 54.8472 29.456 54.826 29.653 54.8639C29.8501 54.9019 30.0314 54.9973 30.1742 55.1383C30.3175 55.2803 30.4152 55.4618 30.4548 55.6596C30.4945 55.8574 30.4744 56.0625 30.397 56.2488C30.3197 56.4351 30.1886 56.5942 30.0205 56.7057C29.8524 56.8172 29.6549 56.8762 29.4532 56.875Z" fill="#B6AC9E"/>
<path d="M59.9219 60.9375H41.6406C41.3713 60.9375 41.1129 60.8305 40.9225 60.64C40.732 60.4496 40.625 60.1912 40.625 59.9219V45.7031C40.625 45.4338 40.732 45.1754 40.9225 44.985C41.1129 44.7945 41.3713 44.6875 41.6406 44.6875H50.7812V41.6406C50.7812 41.3713 50.8883 41.1129 51.0787 40.9225C51.2692 40.732 51.5275 40.625 51.7969 40.625H59.9219C60.1912 40.625 60.4496 40.732 60.64 40.9225C60.8305 41.1129 60.9375 41.3713 60.9375 41.6406V59.9219C60.9375 60.1912 60.8305 60.4496 60.64 60.64C60.4496 60.8305 60.1912 60.9375 59.9219 60.9375ZM42.6562 58.9062H58.9062V42.6562H52.8125V45.7031C52.8125 45.9725 52.7055 46.2308 52.515 46.4213C52.3246 46.6117 52.0662 46.7188 51.7969 46.7188H42.6562V58.9062Z" fill="#B6AC9E"/>
<path d="M22.1101 55.961C21.1259 55.9565 20.1642 55.6662 19.342 55.1253C18.5198 54.5843 17.8725 53.8161 17.4788 52.9141L4.63117 24.2125C4.35813 23.6037 4.20775 22.9471 4.18861 22.2801C4.16948 21.6132 4.28197 20.949 4.51966 20.3255C4.75735 19.7021 5.11557 19.1315 5.57386 18.6466C6.03214 18.1617 6.58151 17.7718 7.19055 17.4993L29.0671 7.72894C29.1898 7.6643 29.3244 7.62546 29.4626 7.61482C29.6008 7.60417 29.7398 7.62194 29.8709 7.66703C30.002 7.71212 30.1225 7.78358 30.2249 7.877C30.3274 7.97042 30.4096 8.08383 30.4666 8.21024C30.5235 8.33665 30.554 8.47338 30.5561 8.61201C30.5582 8.75064 30.5319 8.88824 30.4788 9.01632C30.4257 9.1444 30.347 9.26026 30.2474 9.35675C30.1479 9.45324 30.0296 9.52833 29.8999 9.57738L8.02336 19.3477C7.65293 19.5103 7.31859 19.745 7.03985 20.0382C6.7611 20.3314 6.54354 20.6772 6.39983 21.0553C6.25613 21.4335 6.18918 21.8365 6.20288 22.2408C6.21657 22.6451 6.31065 23.0426 6.47961 23.4102L19.2968 52.1219C19.5491 52.6859 19.9668 53.1598 20.4947 53.4808C21.0225 53.8019 21.6355 53.9549 22.2523 53.9196C22.3856 53.9116 22.5193 53.9299 22.6456 53.9736C22.7719 54.0172 22.8883 54.0853 22.9883 54.1739C23.0882 54.2626 23.1698 54.3701 23.2282 54.4902C23.2866 54.6104 23.3208 54.7409 23.3288 54.8743C23.3368 55.0076 23.3185 55.1413 23.2748 55.2676C23.2312 55.3938 23.1631 55.5103 23.0744 55.6103C22.9858 55.7102 22.8783 55.7918 22.7582 55.8502C22.638 55.9086 22.5075 55.9428 22.3741 55.9508L22.1101 55.961Z" fill="#B6AC9E"/>
<path d="M16.8188 37.5781C16.6234 37.5777 16.4323 37.5209 16.2684 37.4146C16.1044 37.3083 15.9746 37.157 15.8945 36.9788L11.3344 26.8226C11.2827 26.6987 11.2561 26.5658 11.2561 26.4316C11.2561 26.2974 11.2827 26.1645 11.3344 26.0406C11.4304 25.7924 11.6201 25.5918 11.8625 25.482L22.0695 20.9218C22.2911 20.8223 22.541 20.8055 22.774 20.8744C23.0069 20.9434 23.2074 21.0935 23.3391 21.2976C23.4495 21.4713 23.5126 21.6709 23.5219 21.8765C23.5243 22.1229 23.437 22.3619 23.2763 22.5487C23.1156 22.7356 22.8925 22.8576 22.6485 22.8921L13.6195 26.9546L17.4789 35.5874C17.6001 35.6338 17.7104 35.7046 17.8031 35.7955C17.8957 35.8863 17.9686 35.9953 18.0172 36.1156C18.1233 36.3609 18.1284 36.6381 18.0315 36.8872C17.9345 37.1362 17.7433 37.337 17.4992 37.446L17.2453 37.5679C17.1051 37.5987 16.9603 37.6021 16.8188 37.5781Z" fill="#B6AC9E"/>
<path d="M22.3437 44.0781C22.2 44.0775 22.0581 44.0463 21.9273 43.9867L18.7687 42.575C17.5805 42.0432 16.6418 41.0754 16.1466 39.8715C15.6514 38.6675 15.6375 37.3194 16.1078 36.1055C16.1305 36.0394 16.1577 35.9749 16.189 35.9125L21.6023 23.7961C21.6023 23.7961 21.6023 23.7453 21.6023 23.7148L29.057 7.10937C29.6075 5.88192 30.6224 4.92302 31.8792 4.44318C33.1359 3.96333 34.5317 4.00175 35.7601 4.55L58.0125 14.493C58.6215 14.7655 59.1709 15.1554 59.6292 15.6403C60.0875 16.1253 60.4457 16.6958 60.6834 17.3192C60.9211 17.9427 61.0336 18.6069 61.0144 19.2738C60.9953 19.9408 60.8449 20.5974 60.5719 21.2062L53.0765 37.9945C52.956 38.2232 52.7528 38.3974 52.5083 38.4815C52.2639 38.5655 51.9965 38.5532 51.7608 38.447C51.5251 38.3408 51.3388 38.1487 51.2398 37.9099C51.1408 37.6711 51.1366 37.4035 51.2281 37.1617L58.7234 20.3836C58.8924 20.016 58.9865 19.6185 59.0001 19.2142C59.0138 18.8099 58.9469 18.4069 58.8032 18.0287C58.6595 17.6506 58.4419 17.3048 58.1632 17.0116C57.8844 16.7184 57.5501 16.4837 57.1797 16.3211L34.9273 6.40859C34.5598 6.23963 34.1622 6.14555 33.7579 6.13185C33.3536 6.11816 32.9506 6.18511 32.5724 6.32881C32.1943 6.47251 31.8485 6.69008 31.5553 6.96883C31.2622 7.24757 31.0274 7.58191 30.8648 7.95234L23.5117 24.4766C23.5117 24.4766 23.5117 24.4766 23.5117 24.5578L18.0883 36.7453C18.0926 36.7858 18.0926 36.8267 18.0883 36.8672C17.807 37.5827 17.8067 38.3781 18.0874 39.0939C18.368 39.8097 18.9089 40.3929 19.6015 40.7266L22.7601 42.1383C22.9708 42.2343 23.1424 42.3994 23.2464 42.6062C23.3505 42.8131 23.3807 43.0493 23.3321 43.2757C23.2835 43.502 23.159 43.705 22.9792 43.851C22.7995 43.9969 22.5753 44.0771 22.3437 44.0781Z" fill="#B6AC9E"/>
<path d="M41.6405 32.3273C41.3878 32.3286 41.1438 32.2356 40.956 32.0666C40.7682 31.8976 40.6501 31.6647 40.6249 31.4133L39.9647 24.9336L36.8569 27.1883L36.7756 27.239L36.5725 27.3914C36.357 27.553 36.0862 27.6224 35.8195 27.5843C35.5529 27.5462 35.3123 27.4038 35.1506 27.1883C34.989 26.9728 34.9196 26.7019 34.9577 26.4353C34.9958 26.1686 35.1383 25.928 35.3538 25.7664L35.6381 25.5531L35.7397 25.482L40.1881 22.2523C40.3353 22.1505 40.5067 22.0894 40.685 22.0751C40.8634 22.0609 41.0423 22.094 41.2038 22.1711C41.3713 22.2555 41.5121 22.3846 41.6107 22.5442C41.7093 22.7037 41.7618 22.8874 41.7624 23.075L42.6155 31.2C42.6409 31.468 42.559 31.7351 42.3876 31.9427C42.2162 32.1503 41.9694 32.2813 41.7014 32.307L41.6405 32.3273Z" fill="#B6AC9E"/>
<path d="M36.2983 27.4218C36.0785 27.4368 35.8579 27.4368 35.6381 27.4218C35.5048 27.4085 35.3753 27.369 35.2572 27.3056C35.1391 27.2423 35.0346 27.1563 34.9497 27.0525C34.7783 26.843 34.6971 26.574 34.7241 26.3046C34.751 26.0353 34.8838 25.7876 35.0933 25.6162C35.3029 25.4448 35.5719 25.3636 35.8413 25.3906H36.2983C36.5676 25.3906 36.826 25.4976 37.0164 25.688C37.2069 25.8785 37.3139 26.1368 37.3139 26.4062C37.3139 26.6756 37.2069 26.9339 37.0164 27.1243C36.826 27.3148 36.5676 27.4218 36.2983 27.4218Z" fill="#B6AC9E"/>
<path d="M31.4842 25.3906C31.3498 25.3901 31.2169 25.3629 31.0931 25.3106C30.9693 25.2583 30.8572 25.1819 30.7631 25.0859C29.6829 23.9977 28.9588 22.607 28.6867 21.098C28.4146 19.589 28.6075 18.0329 29.2397 16.6359C29.9111 15.1268 31.0556 13.8772 32.5001 13.076C33.9445 12.2748 35.6106 11.9655 37.2464 12.195C38.8822 12.4244 40.3988 13.18 41.5672 14.3477C42.7355 15.5153 43.4921 17.0315 43.7225 18.6672C43.937 20.0886 43.7359 21.5418 43.1436 22.8516C42.7918 23.6502 42.2999 24.3794 41.6912 25.0047C41.6023 25.1125 41.4921 25.2007 41.3675 25.264C41.2429 25.3272 41.1066 25.364 40.9671 25.3722C40.8276 25.3803 40.688 25.3596 40.5569 25.3113C40.4258 25.2631 40.306 25.1882 40.2051 25.0916C40.1043 24.9949 40.0244 24.8784 39.9706 24.7495C39.9168 24.6206 39.8901 24.4819 39.8924 24.3422C39.8946 24.2025 39.9256 24.0648 39.9835 23.9376C40.0413 23.8104 40.1248 23.6966 40.2287 23.6031C40.6546 23.1364 40.998 22.6006 41.2443 22.0188C41.672 21.0639 41.8165 20.0064 41.6607 18.9719C41.5395 18.0955 41.2118 17.2604 40.7046 16.5355C40.1974 15.8105 39.5253 15.2164 38.7436 14.802C37.9618 14.3877 37.0929 14.165 36.2082 14.1522C35.3236 14.1394 34.4485 14.3369 33.6551 14.7285C32.8618 15.1201 32.1728 15.6946 31.6449 16.4046C31.117 17.1146 30.7653 17.9398 30.6187 18.8124C30.4722 19.6849 30.535 20.5798 30.802 21.4233C31.069 22.2668 31.5326 23.0348 32.1545 23.6641C32.2917 23.8035 32.3857 23.9796 32.4253 24.1712C32.4648 24.3627 32.4482 24.5616 32.3774 24.744C32.3066 24.9263 32.1846 25.0844 32.0262 25.1991C31.8677 25.3138 31.6795 25.3803 31.4842 25.3906Z" fill="#B6AC9E"/>
<path d="M40.8281 24.1008C40.5588 24.1008 40.3004 23.9938 40.11 23.8034C39.9195 23.6129 39.8125 23.3546 39.8125 23.0852C39.8125 22.8843 39.8721 22.688 39.9837 22.521C40.0953 22.3539 40.2539 22.2238 40.4395 22.1469C40.625 22.07 40.8293 22.0499 41.0263 22.0891C41.2233 22.1283 41.4042 22.225 41.5463 22.3671C41.6883 22.5091 41.785 22.6901 41.8242 22.8871C41.8634 23.0841 41.8433 23.2883 41.7664 23.4739C41.6896 23.6595 41.5594 23.8181 41.3924 23.9297C41.2254 24.0413 41.029 24.1008 40.8281 24.1008Z" fill="#B6AC9E"/>
<path d="M48.3843 34.5312C48.2406 34.5305 48.0986 34.4994 47.9679 34.4398L41.1835 31.3929C40.9548 31.2724 40.7806 31.0692 40.6966 30.8247C40.6125 30.5803 40.6248 30.3129 40.731 30.0772C40.8372 29.8415 41.0293 29.6552 41.2681 29.5562C41.5069 29.4572 41.7745 29.453 42.0163 29.5445L47.8663 32.1546L51.6038 23.8062L42.4632 19.7437C42.3751 19.724 42.2897 19.6933 42.2093 19.6523C41.9727 19.5306 41.7934 19.3208 41.7098 19.0682C41.6262 18.8156 41.6451 18.5403 41.7624 18.3015C41.8822 18.0709 42.0859 17.8949 42.3315 17.8099C42.5771 17.7249 42.846 17.7373 43.0827 17.8445L53.239 22.4046C53.4814 22.5145 53.671 22.715 53.7671 22.9632C53.8188 23.0871 53.8454 23.22 53.8454 23.3543C53.8454 23.4885 53.8188 23.6214 53.7671 23.7453L49.2069 33.9015C49.1389 34.0706 49.0267 34.2184 48.8819 34.3291C48.7372 34.4399 48.5653 34.5097 48.3843 34.5312Z" fill="#B6AC9E"/>
</svg>
