<svg width="47" height="50" viewBox="0 0 47 50" fill="none" xmlns="http://www.w3.org/2000/svg">
<path d="M38.9876 42.2497C34.7171 37.9369 29.1383 35.5079 23.3278 35.4315C17.5174 35.3552 11.887 37.6368 7.52309 41.8361L5.54841 39.384C10.4658 34.6503 16.8109 32.0775 23.3595 32.162C29.908 32.2466 36.1959 34.9824 41.01 39.8418L38.9876 42.2497Z" fill="#B6AC9E"/>
<path d="M23.0439 14.3072C24.5092 14.3072 25.9416 14.7827 27.16 15.6737C28.3783 16.5646 29.3279 17.831 29.8887 19.3126C30.4494 20.7942 30.5961 22.4245 30.3103 23.9973C30.0244 25.5702 29.3188 27.0149 28.2827 28.1489C27.2466 29.2829 25.9265 30.0551 24.4893 30.368C23.0522 30.6808 21.5626 30.5202 20.2088 29.9066C18.8551 29.2929 17.6979 28.2536 16.8839 26.9202C16.0698 25.5868 15.6353 24.0191 15.6353 22.4155C15.6377 20.2658 16.419 18.205 17.8078 16.6849C19.1967 15.1649 21.0798 14.3098 23.0439 14.3072ZM23.0439 11.0377C20.9878 11.0377 18.9779 11.705 17.2682 12.9552C15.5586 14.2054 14.2262 15.9824 13.4393 18.0614C12.6524 20.1404 12.4466 22.4281 12.8477 24.6352C13.2488 26.8422 14.2389 28.8696 15.6929 30.4608C17.1468 32.052 18.9992 33.1356 21.0158 33.5746C23.0325 34.0136 25.1228 33.7883 27.0224 32.9272C28.922 32.066 30.5456 30.6077 31.688 28.7366C32.8303 26.8656 33.44 24.6658 33.44 22.4155C33.44 19.3979 32.3447 16.5039 30.395 14.3702C28.4454 12.2365 25.8012 11.0377 23.0439 11.0377Z" fill="#B6AC9E"/>
<path d="M23.1903 3.26947C27.1174 3.26947 30.9563 4.54395 34.2215 6.93173C37.4867 9.31951 40.0316 12.7134 41.5345 16.6841C43.0373 20.6548 43.4304 25.0241 42.6643 29.2394C41.8982 33.4547 40.0071 37.3267 37.2303 40.3658C34.4534 43.4049 30.9155 45.4745 27.0639 46.313C23.2123 47.1514 19.22 46.7211 15.5919 45.0764C11.9638 43.4317 8.8628 40.6464 6.68104 37.0728C4.49929 33.4993 3.33475 29.2979 3.33475 25C3.34068 19.2387 5.43452 13.7152 9.15687 9.64138C12.8792 5.56752 17.9261 3.27596 23.1903 3.26947ZM23.1903 0C18.6724 0 14.256 1.46624 10.4995 4.21328C6.74299 6.96031 3.81514 10.8648 2.08621 15.4329C0.357287 20.0011 -0.0950483 25.0277 0.78635 29.8773C1.66775 34.7268 3.84332 39.1814 7.03796 42.6777C10.2326 46.174 14.3028 48.555 18.7339 49.5196C23.165 50.4843 27.7579 49.9892 31.9319 48.097C36.1059 46.2048 39.6735 43.0005 42.1835 38.8892C44.6935 34.778 46.0332 29.9445 46.0332 25C46.0332 18.3696 43.6266 12.0107 39.3427 7.32233C35.0588 2.63392 29.2487 0 23.1903 0Z" fill="#B6AC9E"/>
</svg>
