<svg width="68" height="67" viewBox="0 0 68 67" fill="none" xmlns="http://www.w3.org/2000/svg">
<path d="M18.7641 3.10178L20.971 5.30865M62.0608 46.2934L65.0033 49.341L56.0707 58.2736L29.1679 38.8321L23.9135 44.0865M26.2254 6.04428L62.0608 41.8797M58.2776 50.0766C57.4369 50.9173 56.0707 50.9173 55.3351 50.0766L17.2929 12.0344C16.4521 11.1936 16.4521 9.82749 17.2929 9.09186L24.7542 1.63053C25.5949 0.789822 26.9611 0.789822 27.6967 1.63053L65.7389 39.6728C66.5796 40.5135 66.5796 41.8797 65.7389 42.6153L58.2776 50.0766ZM8.57046 65.4196C7.62466 66.3654 5.73305 66.1552 4.36689 64.7891L3.21091 63.6331C1.84475 62.2669 1.63458 60.4804 2.58038 59.4295L19.9201 42.0898C20.8659 41.144 22.7575 41.3542 24.1236 42.7204L25.2796 43.8764C26.6458 45.2425 26.856 47.029 25.9102 48.0799L8.57046 65.4196Z" stroke="#B6AC9E" stroke-width="2"/>
</svg>
