<svg width="22" height="18" viewBox="0 0 22 18" fill="none" xmlns="http://www.w3.org/2000/svg">
<path d="M19.1151 4.48426C19.1273 4.67883 19.1273 4.87499 19.1273 5.07114C19.1273 11.076 14.733 18 6.69721 18V17.9968C4.32304 18.0003 1.99809 17.293 0 15.9594C2.30958 16.248 4.63483 15.5708 6.46449 14.0769C5.55285 14.0588 4.66944 13.7449 3.93774 13.179C3.20604 12.6132 2.66264 11.8237 2.3835 10.921C3.03907 11.0523 3.71442 11.0254 4.35631 10.8419C3.36781 10.6342 2.47882 10.0773 1.84008 9.26569C1.20134 8.45407 0.852174 7.43767 0.851792 6.38886V6.33191C1.46021 6.6831 2.14013 6.87767 2.83525 6.9014C1.90981 6.25873 1.25465 5.27342 1.00315 4.14607C0.751651 3.01871 0.922711 1.83404 1.48151 0.833236C2.57849 2.23678 3.9471 3.38464 5.49844 4.20224C7.04979 5.01983 8.74915 5.48889 10.4862 5.57893C10.2677 4.60455 10.3643 3.58242 10.7612 2.67099C11.158 1.75955 11.8329 1.00972 12.6812 0.537711C13.5294 0.0657065 14.5037 -0.102104 15.453 0.0602928C16.4023 0.222689 17.2735 0.706222 17.9317 1.43594C18.9101 1.23521 19.8484 0.862333 20.7061 0.333356C20.38 1.38489 19.6979 2.27753 18.7866 2.84541C19.6524 2.7393 20.4979 2.49826 21.2948 2.13039C20.7087 3.04362 19.9705 3.84073 19.1151 4.48426Z" fill="#B6AC9E"/>
</svg>
